<svg width="387" height="452" viewBox="0 0 387 452" fill="none" xmlns="http://www.w3.org/2000/svg">
<g filter="url(#filter0_i_152_1711)">
<path fill-rule="evenodd" clip-rule="evenodd" d="M61.5078 3.00015C102.506 0.998101 332.007 1.0018 354.008 3.00015C376.008 4.9985 382.054 14.2566 385.508 35.5001V95.0002C374.379 86.5436 367.876 83.6797 354.008 82.5002C354.013 82.3938 355.505 53.9903 354.008 47.0001C352.508 39.9971 348.008 36.4969 341.008 35.5001C334.005 34.5033 94.0078 28.0032 61.5078 35.5001C29.0095 42.9968 18.0091 85.9928 61.501 98.9982C104.993 112.004 355.5 98.9982 355.5 98.9982C372.068 98.9982 385.5 112.43 385.5 128.998V419.998C385.5 436.567 372.069 449.998 355.5 449.998H65.5C30.1538 449.998 1.5 421.344 1.5 385.998V128.998C1.5 128.791 1.50363 128.584 1.50781 128.378C1.50934 112.441 1.51248 81.8278 1.50781 59.5001C1.50136 27.9982 20.5101 5.0022 61.5078 3.00015ZM81 146.5C71.335 146.5 63.5 154.335 63.5 164V400C63.5 409.665 71.335 417.5 81 417.5C90.665 417.5 98.5 409.665 98.5 400V164C98.5 154.335 90.665 146.5 81 146.5Z" fill="#FFB55B"/>
</g>
<path fill-rule="evenodd" clip-rule="evenodd" d="M61.5078 3.00015C102.506 0.998101 332.007 1.0018 354.008 3.00015C376.008 4.9985 382.054 14.2566 385.508 35.5001V95.0002C374.379 86.5436 367.876 83.6797 354.008 82.5002C354.013 82.3938 355.505 53.9903 354.008 47.0001C352.508 39.9971 348.008 36.4969 341.008 35.5001C334.005 34.5033 94.0078 28.0032 61.5078 35.5001C29.0095 42.9968 18.0091 85.9928 61.501 98.9982C104.993 112.004 355.5 98.9982 355.5 98.9982C372.068 98.9982 385.5 112.43 385.5 128.998V419.998C385.5 436.567 372.069 449.998 355.5 449.998H65.5C30.1538 449.998 1.5 421.344 1.5 385.998V128.998C1.5 128.791 1.50363 128.584 1.50781 128.378C1.50934 112.441 1.51248 81.8278 1.50781 59.5001C1.50136 27.9982 20.5101 5.0022 61.5078 3.00015ZM81 146.5C71.335 146.5 63.5 154.335 63.5 164V400C63.5 409.665 71.335 417.5 81 417.5C90.665 417.5 98.5 409.665 98.5 400V164C98.5 154.335 90.665 146.5 81 146.5Z" stroke="url(#paint0_linear_152_1711)" stroke-width="3"/>
<defs>
<filter id="filter0_i_152_1711" x="0" y="0" width="391.008" height="455.498" filterUnits="userSpaceOnUse" color-interpolation-filters="sRGB">
<feFlood flood-opacity="0" result="BackgroundImageFix"/>
<feBlend mode="normal" in="SourceGraphic" in2="BackgroundImageFix" result="shape"/>
<feColorMatrix in="SourceAlpha" type="matrix" values="0 0 0 0 0 0 0 0 0 0 0 0 0 0 0 0 0 0 127 0" result="hardAlpha"/>
<feOffset dx="4" dy="4"/>
<feGaussianBlur stdDeviation="5"/>
<feComposite in2="hardAlpha" operator="arithmetic" k2="-1" k3="1"/>
<feColorMatrix type="matrix" values="0 0 0 0 0.477201 0 0 0 0 0.331535 0 0 0 0 0.331535 0 0 0 1 0"/>
<feBlend mode="normal" in2="shape" result="effect1_innerShadow_152_1711"/>
</filter>
<linearGradient id="paint0_linear_152_1711" x1="52.5" y1="-3.5" x2="233" y2="449.5" gradientUnits="userSpaceOnUse">
<stop stop-color="#F68160"/>
<stop offset="1" stop-color="#5C1919"/>
</linearGradient>
</defs>
</svg>
