<svg width="384" height="449" viewBox="0 0 384 449" fill="none" xmlns="http://www.w3.org/2000/svg">
<g filter="url(#filter0_i_152_1711)">
<path fill-rule="evenodd" clip-rule="evenodd" d="M60.0078 1.50015C101.006 -0.501899 330.507 -0.4982 352.508 1.50015C374.508 3.4985 380.554 12.7566 384.008 34.0001V93.5002C372.879 85.0436 366.376 82.1797 352.508 81.0002C352.513 80.8938 354.005 52.4903 352.508 45.5001C351.008 38.4971 346.508 34.9969 339.508 34.0001C332.505 33.0033 92.5078 26.5032 60.0078 34.0001C27.5095 41.4968 16.5091 84.4928 60.001 97.4982C103.493 110.504 354 97.4982 354 97.4982C370.568 97.4982 384 110.93 384 127.498V418.498C384 435.067 370.569 448.498 354 448.498H64C28.6538 448.498 0 419.844 0 384.498V127.498C1.78192e-06 127.291 0.00363203 127.084 0.0078125 126.878C0.00934265 110.941 0.0124774 80.3278 0.0078125 58.0001C0.00136303 26.4982 19.0101 3.5022 60.0078 1.50015ZM79.5 145C69.835 145 62 152.835 62 162.5V398.5C62 408.165 69.835 416 79.5 416C89.165 416 97 408.165 97 398.5V162.5C97 152.835 89.165 145 79.5 145Z" fill="#FFA639"/>
</g>
<defs>
<filter id="filter0_i_152_1711" x="0" y="0" width="388.008" height="452.498" filterUnits="userSpaceOnUse" color-interpolation-filters="sRGB">
<feFlood flood-opacity="0" result="BackgroundImageFix"/>
<feBlend mode="normal" in="SourceGraphic" in2="BackgroundImageFix" result="shape"/>
<feColorMatrix in="SourceAlpha" type="matrix" values="0 0 0 0 0 0 0 0 0 0 0 0 0 0 0 0 0 0 127 0" result="hardAlpha"/>
<feOffset dx="4" dy="4"/>
<feGaussianBlur stdDeviation="100"/>
<feComposite in2="hardAlpha" operator="arithmetic" k2="-1" k3="1"/>
<feColorMatrix type="matrix" values="0 0 0 0 0.946439 0 0 0 0 0.699503 0 0 0 0 0.699503 0 0 0 1 0"/>
<feBlend mode="normal" in2="shape" result="effect1_innerShadow_152_1711"/>
</filter>
</defs>
</svg>
