<svg width="387" height="452" viewBox="0 0 387 452" fill="none" xmlns="http://www.w3.org/2000/svg">
<g filter="url(#filter0_i_152_1711)">
<path fill-rule="evenodd" clip-rule="evenodd" d="M61.5078 3.00015C102.506 0.998101 332.007 1.0018 354.008 3.00015C376.008 4.9985 382.054 14.2566 385.508 35.5001V95.0002C374.379 86.5436 367.876 83.6797 354.008 82.5002C354.013 82.3938 355.505 53.9903 354.008 47.0001C352.508 39.9971 348.008 36.4969 341.008 35.5001C334.005 34.5033 94.0078 28.0032 61.5078 35.5001C29.0095 42.9968 18.0091 85.9928 61.501 98.9982C104.993 112.004 355.5 98.9982 355.5 98.9982C372.068 98.9982 385.5 112.43 385.5 128.998V419.998C385.5 436.567 372.069 449.998 355.5 449.998H65.5C30.1538 449.998 1.5 421.344 1.5 385.998V128.998C1.5 128.791 1.50363 128.584 1.50781 128.378C1.50934 112.441 1.51248 81.8278 1.50781 59.5001C1.50136 27.9982 20.5101 5.0022 61.5078 3.00015ZM81 146.5C71.335 146.5 63.5 154.335 63.5 164V400C63.5 409.665 71.335 417.5 81 417.5C90.665 417.5 98.5 409.665 98.5 400V164C98.5 154.335 90.665 146.5 81 146.5Z" fill="#E1A392"/>
</g>
<path fill-rule="evenodd" clip-rule="evenodd" d="M61.5078 3.00015C102.506 0.998101 332.007 1.0018 354.008 3.00015C376.008 4.9985 382.054 14.2566 385.508 35.5001V95.0002C374.379 86.5436 367.876 83.6797 354.008 82.5002C354.013 82.3938 355.505 53.9903 354.008 47.0001C352.508 39.9971 348.008 36.4969 341.008 35.5001C334.005 34.5033 94.0078 28.0032 61.5078 35.5001C29.0095 42.9968 18.0091 85.9928 61.501 98.9982C104.993 112.004 355.5 98.9982 355.5 98.9982C372.068 98.9982 385.5 112.43 385.5 128.998V419.998C385.5 436.567 372.069 449.998 355.5 449.998H65.5C30.1538 449.998 1.5 421.344 1.5 385.998V128.998C1.5 128.791 1.50363 128.584 1.50781 128.378C1.50934 112.441 1.51248 81.8278 1.50781 59.5001C1.50136 27.9982 20.5101 5.0022 61.5078 3.00015ZM81 146.5C71.335 146.5 63.5 154.335 63.5 164V400C63.5 409.665 71.335 417.5 81 417.5C90.665 417.5 98.5 409.665 98.5 400V164C98.5 154.335 90.665 146.5 81 146.5Z" stroke="url(#paint0_linear_152_1711)" stroke-width="3"/>
<path d="M150.149 211.132C151.717 211.133 153.659 210.947 155.21 211.027C155.232 211.028 155.253 211.029 155.275 211.03C155.909 211.063 156.555 211.113 157.336 211.173C157.436 211.18 157.538 211.188 157.642 211.196C158.568 211.267 159.706 211.351 161.256 211.442C166.463 211.743 170.57 211.49 171.848 211.416C174.411 211.265 177.143 211.259 180.872 211.266C181.213 211.267 181.562 211.269 181.921 211.269C182.211 211.27 182.451 211.386 182.457 211.529C182.462 211.672 182.232 211.787 181.942 211.786C181.591 211.786 181.249 211.785 180.916 211.784C180.914 211.784 180.913 211.784 180.911 211.784C177.159 211.778 174.486 211.786 171.984 211.936C170.678 212.013 166.47 212.277 161.135 211.98C159.567 211.891 158.417 211.81 157.485 211.741C157.383 211.733 157.284 211.726 157.187 211.719C157.185 211.719 157.182 211.718 157.18 211.718C156.394 211.66 155.775 211.613 155.168 211.584C155.156 211.584 155.143 211.583 155.13 211.583C153.561 211.506 151.656 211.699 150.135 211.704C149.845 211.704 149.612 211.576 149.616 211.418C149.62 211.26 149.859 211.132 150.149 211.132ZM256.032 210.57C257.547 210.299 259.561 210.369 261.338 210.546C263.128 210.724 264.747 211.018 265.509 211.196C266.254 211.369 267.082 211.441 268.07 211.496C268.297 211.508 268.532 211.52 268.775 211.532C269.578 211.572 270.472 211.617 271.452 211.711C275.054 212.059 277.403 212.121 279.081 212.127C279.426 212.128 279.747 212.127 280.047 212.126C280.048 212.126 280.048 212.126 280.049 212.126C281.183 212.121 282.03 212.116 282.807 212.236C284.192 212.449 285.322 212.636 286.686 212.988C287.939 213.311 289.549 213.406 291 213.336C291.726 213.302 292.413 213.227 292.995 213.122C293.091 213.104 293.189 213.086 293.289 213.068C294.555 212.837 296.114 212.552 298.452 212.332C300.393 212.15 302.085 212.153 303.582 212.189C304.011 212.199 304.42 212.213 304.813 212.225C305.805 212.254 306.693 212.279 307.53 212.247C312.718 212.047 315.709 212.139 317.588 212.323C319.033 212.464 319.84 212.665 320.422 212.809C320.598 212.852 320.753 212.89 320.9 212.92C322.204 213.179 323.402 213.261 324.844 213.35C325.164 213.37 325.497 213.389 325.845 213.411C327.008 213.482 327.875 213.407 328.556 213.313C328.853 213.271 329.115 213.227 329.362 213.184C329.367 213.183 329.371 213.182 329.376 213.182C329.41 213.176 329.444 213.17 329.478 213.164C329.504 213.16 329.53 213.155 329.555 213.15C329.565 213.146 329.574 213.143 329.581 213.14C329.586 213.138 329.59 213.137 329.593 213.136C329.594 213.136 329.594 213.135 329.595 213.135C329.643 213.117 329.685 213.109 329.693 213.108C329.708 213.105 329.722 213.103 329.728 213.102C329.764 213.096 329.81 213.092 329.841 213.089C329.919 213.081 330.056 213.07 330.267 213.054C330.451 213.033 330.628 213.004 330.849 212.967C330.863 212.965 330.877 212.962 330.891 212.96C331.106 212.924 331.359 212.883 331.675 212.839C331.963 212.799 332.227 212.928 332.265 213.126C332.302 213.324 332.099 213.519 331.811 213.563C331.513 213.608 331.277 213.649 331.061 213.687C331.047 213.689 331.034 213.692 331.02 213.694C330.795 213.734 330.582 213.771 330.352 213.8C330.276 213.81 330.196 213.819 330.122 213.826C329.989 213.845 329.837 213.872 329.656 213.905C329.62 213.911 329.582 213.918 329.544 213.925C329.297 213.97 329.01 214.022 328.686 214.07C327.928 214.183 326.968 214.274 325.703 214.208C325.371 214.19 325.049 214.174 324.735 214.157C323.287 214.081 321.999 214.004 320.615 213.738C320.425 213.701 320.243 213.658 320.048 213.611C319.47 213.472 318.781 213.305 317.445 213.183C315.655 213.019 312.735 212.946 307.576 213.169C306.698 213.207 305.751 213.184 304.742 213.157C304.357 213.147 303.962 213.137 303.559 213.129C302.085 213.099 300.447 213.1 298.572 213.28C296.287 213.5 294.77 213.778 293.509 214.009C293.466 214.017 293.422 214.026 293.379 214.034C293.324 214.044 293.271 214.054 293.217 214.063C292.572 214.18 291.806 214.264 290.995 214.299C289.469 214.366 287.781 214.261 286.425 213.908C285.121 213.57 284.039 213.388 282.662 213.173C281.985 213.067 281.261 213.069 280.15 213.07C279.838 213.07 279.494 213.069 279.114 213.067C277.406 213.055 275.021 212.984 271.379 212.616C270.43 212.521 269.575 212.474 268.777 212.43C268.529 212.416 268.285 212.402 268.047 212.388C267.054 212.328 266.13 212.249 265.269 212.044C264.562 211.875 262.995 211.581 261.254 211.398C259.5 211.214 257.638 211.15 256.306 211.38C256.168 211.404 256.028 211.428 255.889 211.452C254.687 211.655 253.462 211.858 252.475 212.218C248.999 214.036 243.33 213.565 238.5 213.2C237.174 213.097 235.912 212.99 234.775 212.919C234.706 212.915 234.637 212.911 234.567 212.906C228.478 212.529 224.051 212.364 222.542 212.309C222.472 212.306 222.408 212.304 222.351 212.301C222.299 212.3 222.253 212.298 222.212 212.297C221.597 212.273 221.053 212.274 220.483 212.274C220.452 212.274 220.421 212.274 220.39 212.274C219.788 212.275 219.156 212.273 218.409 212.239C215.632 212.115 213.367 212.051 211.408 212.001C211.046 211.992 210.693 211.983 210.349 211.975C210.348 211.975 210.347 211.974 210.346 211.974C208.837 211.938 207.499 211.906 206.229 211.859C203.912 211.774 202.348 211.757 201.131 211.755C200.749 211.754 200.397 211.755 200.065 211.756C199.348 211.758 198.721 211.76 198.074 211.748C196.858 211.726 195.739 211.732 194.637 211.74C194.539 211.741 194.44 211.741 194.342 211.742C193.147 211.75 191.964 211.759 190.713 211.736C190.423 211.731 190.182 211.609 190.177 211.465C190.172 211.32 190.403 211.207 190.694 211.212C191.909 211.232 193.063 211.221 194.258 211.209C194.356 211.208 194.455 211.207 194.555 211.206C195.654 211.195 196.794 211.186 198.032 211.204C198.655 211.214 199.248 211.209 199.951 211.205C200.287 211.202 200.649 211.2 201.051 211.199C202.286 211.197 203.872 211.207 206.21 211.283C207.465 211.323 208.787 211.348 210.295 211.377C210.641 211.384 210.997 211.391 211.364 211.398C213.328 211.438 215.604 211.491 218.396 211.601C219.102 211.629 219.701 211.628 220.301 211.624C220.334 211.624 220.368 211.624 220.402 211.624C220.966 211.62 221.541 211.616 222.19 211.637C222.277 211.64 222.388 211.644 222.521 211.648C224.032 211.696 228.476 211.836 234.589 212.186C234.608 212.187 234.627 212.189 234.645 212.19C236.153 212.276 237.419 212.348 238.504 212.397C240.365 212.481 241.693 212.507 242.792 212.424C244.166 212.322 245.193 212.317 246.035 212.327C246.196 212.329 246.348 212.33 246.493 212.333C247.119 212.342 247.614 212.35 248.109 212.312C249.605 212.198 250.679 211.963 251.98 211.485C253.082 211.078 254.431 210.848 255.613 210.643C255.615 210.643 255.617 210.642 255.619 210.642C255.759 210.618 255.897 210.594 256.032 210.57ZM335.846 212.118C336.137 212.108 336.369 212.251 336.365 212.44C336.361 212.629 336.123 212.795 335.832 212.81C335.14 212.844 334.448 212.878 333.756 212.909C333.466 212.923 333.234 212.772 333.238 212.573C333.242 212.373 333.48 212.204 333.771 212.194C334.463 212.17 335.154 212.145 335.846 212.118ZM254.842 206.456C255.125 206.409 255.407 206.551 255.47 206.774C255.533 206.997 255.354 207.215 255.071 207.261C254.921 207.286 254.674 207.33 254.343 207.389C252.022 207.814 245.515 208.892 238.52 209.147C238.321 209.155 238.12 209.162 237.92 209.169C237.312 209.188 236.767 209.208 236.248 209.227C234.028 209.308 232.243 209.788 227.998 209.687C213.269 209.319 198.551 208.579 183.839 208.613C180.722 208.618 177.605 208.649 174.488 208.718C169.34 208.832 164.208 208.847 159.056 208.839C154.762 208.835 146.893 208.556 145.041 208.525C144.75 208.521 144.518 208.385 144.522 208.221C144.526 208.058 144.764 207.931 145.054 207.936C146.893 207.975 154.736 208.279 159.014 208.293C164.156 208.312 169.277 208.306 174.416 208.197C177.556 208.13 180.698 208.081 183.842 208.045C198.56 207.884 213.302 207.993 228.029 208.164C232.234 208.21 233.943 208.587 236.155 208.499C236.676 208.478 237.223 208.456 237.837 208.433C238.067 208.425 238.296 208.416 238.524 208.406C245.385 208.12 251.746 207.032 254.084 206.593C254.426 206.53 254.683 206.483 254.842 206.456ZM268.345 206.755C271.587 206.678 276.195 206.791 280.222 206.908C282.186 206.964 284.011 207.021 285.473 207.047C287.738 207.088 289.162 207.324 290.575 207.559C290.59 207.562 290.605 207.564 290.62 207.567C290.756 207.589 290.892 207.612 291.029 207.634C292.312 207.845 293.667 208.038 295.745 208.081C298.064 208.129 301.274 207.99 304.511 207.859C304.514 207.859 304.516 207.859 304.519 207.859C307.739 207.724 311.008 207.145 313.368 207.214C321.591 207.45 326.659 208.086 329.221 208.5C333.702 209.2 338.793 208.494 343.371 209.2C343.876 209.348 343.021 209.814 342.09 209.706C342.056 209.703 342.023 209.7 341.989 209.697C341.669 209.668 341.389 209.645 340.994 209.629C340.422 209.62 339.996 209.626 339.608 209.632C338.588 209.652 331.511 209.648 329.009 209.249C326.577 208.86 321.611 209.292 313.334 209.189C311.018 209.16 307.82 208.654 304.583 208.794C304.574 208.794 304.565 208.795 304.556 208.795C301.342 208.937 298.101 209.084 295.743 209.038C293.675 208.998 292.289 208.81 291.024 208.605C290.831 208.574 290.642 208.543 290.452 208.511C290.439 208.509 290.425 208.506 290.411 208.504C289.011 208.271 287.652 208.045 285.471 208.002C283.977 207.972 282.13 207.913 280.154 207.85C276.145 207.722 271.601 207.589 268.387 207.649C268.097 207.654 267.852 207.459 267.84 207.212C267.829 206.966 268.055 206.762 268.345 206.755ZM268.44 201.179C275.995 200.095 283.579 199.911 291.064 200.644C292.612 200.794 294.155 200.977 295.692 201.191C298.036 201.26 301.307 201.401 304.574 201.577C304.611 201.58 304.647 201.582 304.684 201.584C307.915 201.757 311.132 201.962 313.442 202.105C321.663 202.618 326.75 203.162 329.311 203.743C331.7 204.287 332.363 204.325 333.347 204.397C333.373 204.399 333.4 204.402 333.427 204.404C333.429 204.403 333.431 204.403 333.432 204.402C333.466 204.395 333.494 204.392 333.509 204.391C333.539 204.388 333.563 204.388 333.572 204.388C333.593 204.388 333.611 204.389 333.617 204.389C333.642 204.391 333.672 204.393 333.69 204.395C333.865 204.41 334.414 204.471 334.848 204.531C335.294 204.592 335.611 204.652 335.945 204.717C335.979 204.724 336.013 204.731 336.047 204.737C336.349 204.796 336.677 204.86 337.149 204.936C337.437 204.983 337.641 205.166 337.605 205.347C337.568 205.527 337.306 205.639 337.018 205.597C336.52 205.522 336.171 205.459 335.868 205.403C335.835 205.397 335.801 205.391 335.768 205.385C335.447 205.326 335.167 205.277 334.772 205.227C334.2 205.172 333.775 205.145 333.387 205.122C332.369 205.058 331.602 205.022 329.101 204.476C326.67 203.949 321.715 203.464 313.44 202.997C311.126 202.868 307.906 202.68 304.677 202.519C304.639 202.517 304.601 202.515 304.564 202.513C301.295 202.349 298.029 202.214 295.69 202.148C294.141 202.104 292.598 202.084 291.057 202.08C283.532 202.064 276.086 202.406 268.482 202.072C266.796 202.155 265.255 202.215 263.827 202.272C259.624 202.437 256.399 202.581 253.323 203.164C252.648 203.291 250.881 203.433 248.327 203.607C247.579 203.658 246.758 203.712 245.871 203.769C243.779 203.903 241.314 204.055 238.545 204.221C238.436 204.228 238.327 204.234 238.217 204.241C237.608 204.278 237.064 204.313 236.544 204.347C234.324 204.493 232.571 204.605 228.325 204.666C223.1 204.74 214.347 204.773 209.666 204.757C207.321 204.748 205.998 204.723 205.062 204.699C204.801 204.692 204.572 204.685 204.361 204.679C203.812 204.664 203.385 204.652 202.826 204.649C198.797 204.626 195.977 204.737 191.356 204.894C191.066 204.903 190.814 204.794 190.793 204.65C190.772 204.505 190.99 204.38 191.279 204.37C195.907 204.204 198.771 204.081 202.854 204.088C203.438 204.089 203.895 204.1 204.454 204.113C204.662 204.118 204.883 204.124 205.13 204.129C206.051 204.148 207.361 204.168 209.693 204.165C214.366 204.158 223.107 204.076 228.315 203.976C232.52 203.893 234.239 203.777 236.452 203.621C236.972 203.585 237.519 203.547 238.133 203.507C238.273 203.498 238.411 203.489 238.549 203.48C241.287 203.305 243.728 203.142 245.8 202.999C246.686 202.938 247.505 202.88 248.25 202.825C250.855 202.633 252.516 202.488 253.094 202.376C256.278 201.756 259.644 201.586 263.885 201.397C265.298 201.334 266.808 201.268 268.44 201.179ZM174.705 204.713C174.995 204.709 175.245 204.822 175.265 204.966C175.285 205.109 175.066 205.23 174.777 205.234C173.246 205.259 172.146 205.28 171.287 205.297C169.695 205.327 168.926 205.342 167.774 205.324C164.8 205.279 161.929 205.234 159.346 205.189C155.053 205.116 151.554 205.044 149.702 204.977C149.412 204.967 149.179 204.83 149.183 204.671C149.187 204.513 149.425 204.394 149.716 204.405C151.554 204.477 155.027 204.56 159.304 204.643C161.89 204.694 164.771 204.744 167.763 204.794C168.88 204.813 169.606 204.801 171.162 204.773C172.022 204.758 173.134 204.737 174.705 204.713Z" fill="url(#paint1_linear_152_1711)"/>
<path d="M150.149 171.123C151.717 171.123 153.659 170.937 155.21 171.017C155.232 171.018 155.253 171.02 155.275 171.021C155.909 171.053 156.555 171.103 157.336 171.163C157.436 171.17 157.538 171.179 157.642 171.186C158.568 171.257 159.706 171.341 161.256 171.432C166.463 171.734 170.57 171.48 171.848 171.406C174.411 171.255 177.143 171.249 180.872 171.257C181.213 171.257 181.562 171.259 181.921 171.26C182.211 171.26 182.451 171.376 182.457 171.519C182.462 171.662 182.232 171.777 181.942 171.777C181.591 171.776 181.249 171.775 180.916 171.774C180.914 171.774 180.913 171.774 180.911 171.774C177.159 171.768 174.486 171.776 171.984 171.927C170.678 172.004 166.47 172.267 161.135 171.97C159.567 171.882 158.417 171.8 157.485 171.731C157.383 171.724 157.284 171.716 157.187 171.709C157.185 171.709 157.182 171.709 157.18 171.708C156.394 171.65 155.775 171.604 155.168 171.574C155.156 171.574 155.143 171.573 155.13 171.573C153.561 171.496 151.656 171.689 150.135 171.694C149.845 171.694 149.612 171.567 149.616 171.408C149.62 171.25 149.859 171.122 150.149 171.123ZM256.032 170.56C257.547 170.29 259.561 170.359 261.338 170.537C263.128 170.714 264.747 171.008 265.509 171.186C266.254 171.359 267.082 171.431 268.07 171.486C268.297 171.498 268.532 171.51 268.775 171.522C269.578 171.563 270.472 171.607 271.452 171.702C275.054 172.049 277.403 172.111 279.081 172.117C279.426 172.118 279.747 172.117 280.047 172.116C280.048 172.116 280.048 172.116 280.049 172.116C281.183 172.111 282.03 172.106 282.807 172.226C284.192 172.44 285.322 172.626 286.686 172.978C287.939 173.302 289.549 173.396 291 173.326C291.726 173.292 292.413 173.217 292.995 173.112C293.091 173.095 293.189 173.076 293.289 173.058C294.555 172.828 296.114 172.542 298.452 172.323C300.393 172.14 302.085 172.144 303.582 172.179C304.011 172.19 304.42 172.203 304.813 172.215C305.805 172.245 306.693 172.269 307.53 172.237C312.718 172.037 315.709 172.129 317.588 172.313C319.033 172.455 319.84 172.656 320.422 172.799C320.598 172.842 320.753 172.881 320.9 172.91C322.204 173.169 323.402 173.251 324.844 173.34C325.164 173.36 325.497 173.38 325.845 173.401C327.008 173.472 327.875 173.397 328.556 173.303C328.853 173.262 329.115 173.217 329.362 173.174C329.367 173.174 329.371 173.173 329.376 173.172C329.41 173.166 329.444 173.16 329.478 173.154C329.504 173.15 329.53 173.145 329.555 173.141C329.565 173.136 329.574 173.133 329.581 173.131C329.586 173.129 329.59 173.127 329.593 173.126C329.594 173.126 329.594 173.125 329.595 173.125C329.643 173.108 329.685 173.1 329.693 173.098C329.708 173.095 329.722 173.093 329.728 173.092C329.764 173.086 329.81 173.082 329.841 173.079C329.919 173.072 330.056 173.06 330.267 173.045C330.451 173.023 330.628 172.994 330.849 172.957C330.863 172.955 330.877 172.953 330.891 172.95C331.106 172.915 331.359 172.874 331.675 172.83C331.963 172.79 332.227 172.918 332.265 173.116C332.302 173.314 332.099 173.509 331.811 173.553C331.513 173.598 331.277 173.639 331.061 173.677C331.047 173.68 331.034 173.682 331.02 173.685C330.795 173.724 330.582 173.761 330.352 173.79C330.276 173.8 330.196 173.809 330.122 173.817C329.989 173.835 329.837 173.862 329.656 173.895C329.62 173.901 329.582 173.908 329.544 173.915C329.297 173.96 329.01 174.012 328.686 174.061C327.928 174.173 326.968 174.264 325.703 174.198C325.371 174.18 325.049 174.164 324.735 174.148C323.287 174.071 321.999 173.994 320.615 173.728C320.425 173.692 320.243 173.648 320.048 173.601C319.47 173.463 318.781 173.295 317.445 173.173C315.655 173.01 312.735 172.937 307.576 173.159C306.698 173.197 305.751 173.174 304.742 173.147C304.357 173.137 303.962 173.127 303.559 173.119C302.085 173.089 300.447 173.09 298.572 173.271C296.287 173.49 294.77 173.769 293.509 173.999C293.466 174.008 293.422 174.016 293.379 174.024C293.324 174.034 293.271 174.044 293.217 174.053C292.572 174.171 291.806 174.254 290.995 174.289C289.469 174.356 287.781 174.251 286.425 173.898C285.121 173.56 284.039 173.378 282.662 173.163C281.985 173.057 281.261 173.059 280.15 173.06C279.838 173.06 279.494 173.06 279.114 173.057C277.406 173.046 275.021 172.975 271.379 172.607C270.43 172.511 269.575 172.464 268.777 172.42C268.529 172.406 268.285 172.393 268.047 172.378C267.054 172.318 266.13 172.239 265.269 172.034C264.562 171.866 262.995 171.571 261.254 171.389C259.5 171.204 257.638 171.14 256.306 171.371C256.168 171.395 256.028 171.418 255.889 171.442C254.687 171.645 253.462 171.848 252.475 172.208C248.999 174.026 243.33 173.555 238.5 173.191C237.174 173.087 235.912 172.98 234.775 172.91C234.706 172.905 234.637 172.901 234.567 172.897C228.478 172.519 224.051 172.354 222.542 172.299C222.472 172.296 222.408 172.294 222.351 172.292C222.299 172.29 222.253 172.288 222.212 172.287C221.597 172.263 221.053 172.264 220.483 172.265C220.452 172.265 220.421 172.265 220.39 172.265C219.788 172.265 219.156 172.263 218.409 172.23C215.632 172.105 213.367 172.041 211.408 171.992C211.046 171.982 210.693 171.973 210.349 171.965C210.348 171.965 210.347 171.965 210.346 171.965C208.837 171.928 207.499 171.897 206.229 171.85C203.912 171.764 202.348 171.747 201.131 171.745C200.749 171.744 200.397 171.745 200.065 171.746C199.348 171.748 198.721 171.75 198.074 171.738C196.858 171.716 195.739 171.723 194.637 171.73C194.539 171.731 194.44 171.731 194.342 171.732C193.147 171.741 191.964 171.749 190.713 171.726C190.423 171.721 190.182 171.599 190.177 171.455C190.172 171.311 190.403 171.197 190.694 171.202C191.909 171.222 193.063 171.211 194.258 171.199C194.356 171.199 194.455 171.197 194.555 171.196C195.654 171.186 196.794 171.176 198.032 171.195C198.655 171.204 199.248 171.2 199.951 171.195C200.287 171.193 200.649 171.19 201.051 171.189C202.286 171.187 203.872 171.197 206.21 171.273C207.465 171.314 208.787 171.339 210.295 171.368C210.641 171.374 210.997 171.381 211.364 171.389C213.328 171.428 215.604 171.481 218.396 171.591C219.102 171.619 219.701 171.618 220.301 171.614C220.334 171.614 220.368 171.614 220.402 171.614C220.966 171.61 221.541 171.606 222.19 171.627C222.277 171.63 222.388 171.634 222.521 171.638C224.032 171.686 228.476 171.826 234.589 172.176C234.608 172.178 234.627 172.179 234.645 172.18C236.153 172.266 237.419 172.338 238.504 172.387C240.365 172.471 241.693 172.497 242.792 172.415C244.166 172.312 245.193 172.307 246.035 172.317C246.196 172.319 246.348 172.321 246.493 172.323C247.119 172.332 247.614 172.34 248.109 172.303C249.605 172.189 250.679 171.953 251.98 171.475C253.082 171.069 254.431 170.839 255.613 170.633C255.615 170.633 255.617 170.632 255.619 170.632C255.759 170.608 255.897 170.584 256.032 170.56ZM335.846 172.109C336.137 172.098 336.369 172.241 336.365 172.43C336.361 172.619 336.123 172.785 335.832 172.8C335.14 172.835 334.448 172.868 333.756 172.9C333.466 172.913 333.234 172.762 333.238 172.563C333.242 172.364 333.48 172.194 333.771 172.184C334.463 172.161 335.154 172.135 335.846 172.109ZM254.842 166.447C255.125 166.399 255.407 166.541 255.47 166.764C255.533 166.987 255.354 167.205 255.071 167.251C254.921 167.276 254.674 167.32 254.343 167.379C252.022 167.804 245.515 168.882 238.52 169.138C238.321 169.145 238.12 169.152 237.92 169.159C237.312 169.179 236.767 169.198 236.248 169.217C234.028 169.298 232.243 169.778 227.998 169.678C213.269 169.309 198.551 168.569 183.839 168.603C180.722 168.608 177.605 168.639 174.488 168.708C169.34 168.822 164.208 168.837 159.056 168.83C154.762 168.825 146.893 168.546 145.041 168.515C144.75 168.511 144.518 168.375 144.522 168.212C144.526 168.048 144.764 167.921 145.054 167.927C146.893 167.965 154.736 168.269 159.014 168.283C164.156 168.302 169.277 168.296 174.416 168.187C177.556 168.12 180.698 168.071 183.842 168.035C198.56 167.874 213.302 167.984 228.029 168.154C232.234 168.2 233.943 168.577 236.155 168.49C236.676 168.469 237.223 168.446 237.837 168.424C238.067 168.415 238.296 168.406 238.524 168.396C245.385 168.11 251.746 167.022 254.084 166.583C254.426 166.521 254.683 166.473 254.842 166.447ZM268.345 166.745C271.587 166.668 276.195 166.781 280.222 166.898C282.186 166.954 284.011 167.011 285.473 167.037C287.738 167.078 289.162 167.315 290.575 167.55C290.59 167.552 290.605 167.554 290.62 167.557C290.756 167.58 290.892 167.602 291.029 167.625C292.312 167.835 293.667 168.028 295.745 168.071C298.064 168.119 301.274 167.98 304.511 167.849C304.514 167.849 304.516 167.849 304.519 167.849C307.739 167.715 311.008 167.135 313.368 167.204C321.591 167.44 326.659 168.076 329.221 168.491C333.702 169.19 338.793 168.484 343.371 169.19C343.876 169.338 343.021 169.805 342.09 169.696C342.056 169.693 342.023 169.69 341.989 169.687C341.669 169.658 341.389 169.635 340.994 169.619C340.422 169.611 339.996 169.617 339.608 169.623C338.588 169.642 331.511 169.638 329.009 169.239C326.577 168.851 321.611 169.282 313.334 169.18C311.018 169.15 307.82 168.645 304.583 168.784C304.574 168.785 304.565 168.785 304.556 168.785C301.342 168.927 298.101 169.075 295.743 169.029C293.675 168.989 292.289 168.8 291.024 168.596C290.831 168.564 290.642 168.533 290.452 168.501C290.439 168.499 290.425 168.497 290.411 168.494C289.011 168.261 287.652 168.035 285.471 167.992C283.977 167.963 282.13 167.903 280.154 167.84C276.145 167.712 271.601 167.579 268.387 167.639C268.097 167.645 267.852 167.449 267.84 167.203C267.829 166.957 268.055 166.752 268.345 166.745ZM268.44 161.169C275.995 160.086 283.579 159.902 291.064 160.635C292.612 160.784 294.155 160.968 295.692 161.182C298.036 161.25 301.307 161.391 304.574 161.568C304.611 161.57 304.647 161.572 304.684 161.574C307.915 161.748 311.132 161.952 313.442 162.095C321.663 162.608 326.75 163.152 329.311 163.733C331.7 164.278 332.363 164.316 333.347 164.388C333.373 164.39 333.4 164.392 333.427 164.394C333.429 164.393 333.431 164.393 333.432 164.393C333.466 164.386 333.494 164.382 333.509 164.381C333.539 164.378 333.563 164.378 333.572 164.378C333.593 164.378 333.611 164.379 333.617 164.38C333.642 164.381 333.672 164.383 333.69 164.385C333.865 164.401 334.414 164.461 334.848 164.521C335.294 164.582 335.611 164.643 335.945 164.708C335.979 164.714 336.013 164.721 336.047 164.728C336.349 164.786 336.677 164.85 337.149 164.926C337.437 164.973 337.641 165.157 337.605 165.337C337.568 165.518 337.306 165.63 337.018 165.587C336.52 165.513 336.171 165.449 335.868 165.394C335.835 165.387 335.801 165.381 335.768 165.375C335.447 165.317 335.167 165.267 334.772 165.217C334.2 165.162 333.775 165.135 333.387 165.112C332.369 165.048 331.602 165.012 329.101 164.466C326.67 163.939 321.715 163.454 313.44 162.988C311.126 162.858 307.906 162.67 304.677 162.509C304.639 162.507 304.601 162.505 304.564 162.504C301.295 162.339 298.029 162.204 295.69 162.138C294.141 162.094 292.598 162.075 291.057 162.07C283.532 162.054 276.086 162.396 268.482 162.062C266.796 162.145 265.255 162.206 263.827 162.262C259.624 162.427 256.399 162.572 253.323 163.154C252.648 163.282 250.881 163.423 248.327 163.598C247.579 163.649 246.758 163.702 245.871 163.759C243.779 163.894 241.314 164.045 238.545 164.211C238.436 164.218 238.327 164.225 238.217 164.231C237.608 164.268 237.064 164.303 236.544 164.337C234.324 164.484 232.571 164.595 228.325 164.656C223.1 164.73 214.347 164.763 209.666 164.747C207.321 164.739 205.998 164.713 205.062 164.689C204.801 164.683 204.572 164.676 204.361 164.67C203.812 164.654 203.385 164.642 202.826 164.639C198.797 164.616 195.977 164.728 191.356 164.884C191.066 164.894 190.814 164.784 190.793 164.64C190.772 164.496 190.99 164.371 191.279 164.36C195.907 164.195 198.771 164.071 202.854 164.078C203.438 164.079 203.895 164.09 204.454 164.104C204.662 164.109 204.883 164.114 205.13 164.119C206.051 164.139 207.361 164.158 209.693 164.155C214.366 164.148 223.107 164.066 228.315 163.966C232.52 163.884 234.239 163.767 236.452 163.612C236.972 163.575 237.519 163.537 238.133 163.497C238.273 163.488 238.411 163.479 238.549 163.47C241.287 163.295 243.728 163.133 245.8 162.989C246.686 162.928 247.505 162.87 248.25 162.815C250.855 162.623 252.516 162.478 253.094 162.366C256.278 161.746 259.644 161.576 263.885 161.387C265.298 161.324 266.808 161.258 268.44 161.169ZM174.705 164.703C174.995 164.699 175.245 164.812 175.265 164.956C175.285 165.099 175.066 165.22 174.777 165.225C173.246 165.25 172.146 165.271 171.287 165.287C169.695 165.317 168.926 165.332 167.774 165.314C164.8 165.269 161.929 165.224 159.346 165.179C155.053 165.106 151.554 165.034 149.702 164.967C149.412 164.957 149.179 164.82 149.183 164.661C149.187 164.503 149.425 164.384 149.716 164.395C151.554 164.467 155.027 164.55 159.304 164.633C161.89 164.684 164.771 164.734 167.763 164.784C168.88 164.803 169.606 164.791 171.162 164.763C172.022 164.748 173.134 164.727 174.705 164.703Z" fill="url(#paint2_linear_152_1711)"/>
<path d="M150.149 251.142C151.717 251.143 153.659 250.957 155.21 251.037C155.232 251.038 155.253 251.039 155.275 251.04C155.909 251.073 156.555 251.122 157.336 251.182C157.436 251.19 157.538 251.198 157.642 251.206C158.568 251.277 159.706 251.361 161.256 251.452C166.463 251.753 170.57 251.5 171.848 251.426C174.411 251.274 177.143 251.269 180.872 251.276C181.213 251.277 181.562 251.278 181.921 251.279C182.211 251.28 182.451 251.396 182.457 251.539C182.462 251.682 182.232 251.797 181.942 251.796C181.591 251.795 181.249 251.795 180.916 251.794C180.914 251.794 180.913 251.794 180.911 251.794C177.159 251.788 174.486 251.796 171.984 251.946C170.678 252.023 166.47 252.286 161.135 251.99C159.567 251.901 158.417 251.82 157.485 251.751C157.383 251.743 157.284 251.736 157.187 251.729C157.185 251.728 157.182 251.728 157.18 251.728C156.394 251.67 155.775 251.623 155.168 251.594C155.156 251.593 155.143 251.593 155.13 251.592C153.561 251.516 151.656 251.709 150.135 251.713C149.845 251.714 149.612 251.586 149.616 251.428C149.62 251.27 149.859 251.142 150.149 251.142ZM256.032 250.579C257.547 250.309 259.561 250.379 261.338 250.556C263.128 250.734 264.747 251.028 265.509 251.205C266.254 251.379 267.082 251.45 268.07 251.505C268.297 251.518 268.532 251.53 268.775 251.542C269.578 251.582 270.472 251.627 271.452 251.721C275.054 252.069 277.403 252.131 279.081 252.137C279.426 252.138 279.747 252.137 280.047 252.135C280.048 252.135 280.048 252.135 280.049 252.135C281.183 252.131 282.03 252.126 282.807 252.246C284.192 252.459 285.322 252.646 286.686 252.998C287.939 253.321 289.549 253.415 291 253.346C291.726 253.311 292.413 253.236 292.995 253.131C293.091 253.114 293.189 253.096 293.289 253.078C294.555 252.847 296.114 252.562 298.452 252.342C300.393 252.159 302.085 252.163 303.582 252.199C304.011 252.209 304.42 252.223 304.813 252.234C305.805 252.264 306.693 252.289 307.53 252.257C312.718 252.056 315.709 252.149 317.588 252.333C319.033 252.474 319.84 252.675 320.422 252.818C320.598 252.862 320.753 252.9 320.9 252.929C322.204 253.189 323.402 253.271 324.844 253.36C325.164 253.379 325.497 253.399 325.845 253.421C327.008 253.492 327.875 253.416 328.556 253.322C328.853 253.281 329.115 253.237 329.362 253.194C329.367 253.193 329.371 253.192 329.376 253.191C329.41 253.185 329.444 253.18 329.478 253.174C329.504 253.17 329.53 253.164 329.555 253.16C329.565 253.156 329.574 253.153 329.581 253.15C329.586 253.148 329.59 253.147 329.593 253.146C329.594 253.145 329.594 253.145 329.595 253.145C329.643 253.127 329.685 253.119 329.693 253.117C329.708 253.114 329.722 253.113 329.728 253.112C329.764 253.106 329.81 253.101 329.841 253.098C329.919 253.091 330.056 253.08 330.267 253.064C330.451 253.042 330.628 253.013 330.849 252.977C330.863 252.975 330.877 252.972 330.891 252.97C331.106 252.934 331.359 252.893 331.675 252.849C331.963 252.809 332.227 252.938 332.265 253.136C332.302 253.334 332.099 253.529 331.811 253.573C331.513 253.618 331.277 253.659 331.061 253.697C331.047 253.699 331.034 253.702 331.02 253.704C330.795 253.744 330.582 253.781 330.352 253.81C330.276 253.82 330.196 253.829 330.122 253.836C329.989 253.855 329.837 253.881 329.656 253.914C329.62 253.921 329.582 253.927 329.544 253.934C329.297 253.979 329.01 254.032 328.686 254.08C327.928 254.192 326.968 254.284 325.703 254.217C325.371 254.2 325.049 254.184 324.735 254.167C323.287 254.091 321.999 254.014 320.615 253.748C320.425 253.711 320.243 253.667 320.048 253.621C319.47 253.482 318.781 253.314 317.445 253.193C315.655 253.029 312.735 252.956 307.576 253.179C306.698 253.217 305.751 253.194 304.742 253.167C304.357 253.157 303.962 253.147 303.559 253.139C302.085 253.108 300.447 253.11 298.572 253.29C296.287 253.51 294.77 253.788 293.509 254.019C293.466 254.027 293.422 254.035 293.379 254.044C293.324 254.054 293.271 254.063 293.217 254.073C292.572 254.19 291.806 254.273 290.995 254.309C289.469 254.376 287.781 254.27 286.425 253.918C285.121 253.579 284.039 253.398 282.662 253.182C281.985 253.076 281.261 253.079 280.15 253.08C279.838 253.08 279.494 253.079 279.114 253.076C277.406 253.065 275.021 252.994 271.379 252.626C270.43 252.531 269.575 252.484 268.777 252.44C268.529 252.426 268.285 252.412 268.047 252.398C267.054 252.338 266.13 252.258 265.269 252.054C264.562 251.885 262.995 251.59 261.254 251.408C259.5 251.224 257.638 251.16 256.306 251.39C256.168 251.414 256.028 251.438 255.889 251.461C254.687 251.665 253.462 251.868 252.475 252.228C248.999 254.045 243.33 253.575 238.5 253.21C237.174 253.107 235.912 252.999 234.775 252.929C234.706 252.925 234.637 252.921 234.567 252.916C228.478 252.538 224.051 252.374 222.542 252.318C222.472 252.316 222.408 252.313 222.351 252.311C222.299 252.309 222.253 252.308 222.212 252.306C221.597 252.283 221.053 252.284 220.483 252.284C220.452 252.284 220.421 252.284 220.39 252.284C219.788 252.285 219.156 252.282 218.409 252.249C215.632 252.125 213.367 252.061 211.408 252.011C211.046 252.002 210.693 251.993 210.349 251.984C210.348 251.984 210.347 251.984 210.346 251.984C208.837 251.948 207.499 251.916 206.229 251.869C203.912 251.784 202.348 251.767 201.131 251.764C200.749 251.764 200.397 251.764 200.065 251.765C199.348 251.767 198.721 251.77 198.074 251.758C196.858 251.736 195.739 251.742 194.637 251.75C194.539 251.751 194.44 251.751 194.342 251.752C193.147 251.76 191.964 251.769 190.713 251.746C190.423 251.74 190.182 251.619 190.177 251.474C190.172 251.33 190.403 251.217 190.694 251.221C191.909 251.242 193.063 251.231 194.258 251.219C194.356 251.218 194.455 251.217 194.555 251.216C195.654 251.205 196.794 251.196 198.032 251.214C198.655 251.223 199.248 251.219 199.951 251.214C200.287 251.212 200.649 251.21 201.051 251.209C202.286 251.207 203.872 251.217 206.21 251.292C207.465 251.333 208.787 251.358 210.295 251.387C210.641 251.394 210.997 251.401 211.364 251.408C213.328 251.448 215.604 251.501 218.396 251.611C219.102 251.638 219.701 251.637 220.301 251.634C220.334 251.634 220.368 251.634 220.402 251.633C220.966 251.63 221.541 251.626 222.19 251.647C222.277 251.65 222.388 251.654 222.521 251.658C224.032 251.706 228.476 251.845 234.589 252.196C234.608 252.197 234.627 252.198 234.645 252.2C236.153 252.286 237.419 252.357 238.504 252.406C240.365 252.49 241.693 252.517 242.792 252.434C244.166 252.331 245.193 252.326 246.035 252.336C246.196 252.338 246.348 252.34 246.493 252.342C247.119 252.352 247.614 252.36 248.109 252.322C249.605 252.208 250.679 251.973 251.98 251.494C253.082 251.088 254.431 250.858 255.613 250.653C255.615 250.652 255.617 250.652 255.619 250.652C255.759 250.627 255.897 250.603 256.032 250.579ZM335.846 252.128C336.137 252.117 336.369 252.261 336.365 252.449C336.361 252.638 336.123 252.804 335.832 252.819C335.14 252.854 334.448 252.887 333.756 252.919C333.466 252.933 333.234 252.782 333.238 252.583C333.242 252.383 333.48 252.214 333.771 252.204C334.463 252.18 335.154 252.155 335.846 252.128ZM254.842 246.466C255.125 246.419 255.407 246.561 255.47 246.784C255.533 247.007 255.354 247.225 255.071 247.271C254.921 247.295 254.674 247.339 254.343 247.398C252.022 247.824 245.515 248.902 238.52 249.157C238.321 249.165 238.12 249.172 237.92 249.179C237.312 249.198 236.767 249.218 236.248 249.237C234.028 249.318 232.243 249.798 227.998 249.697C213.269 249.329 198.551 248.589 183.839 248.623C180.722 248.627 177.605 248.659 174.488 248.728C169.34 248.842 164.208 248.856 159.056 248.849C154.762 248.845 146.893 248.566 145.041 248.535C144.75 248.53 144.518 248.394 144.522 248.231C144.526 248.068 144.764 247.941 145.054 247.946C146.893 247.985 154.736 248.289 159.014 248.302C164.156 248.322 169.277 248.316 174.416 248.207C177.556 248.14 180.698 248.09 183.842 248.054C198.56 247.894 213.302 248.003 228.029 248.174C232.234 248.219 233.943 248.596 236.155 248.509C236.676 248.488 237.223 248.466 237.837 248.443C238.067 248.435 238.296 248.426 238.524 248.416C245.385 248.13 251.746 247.042 254.084 246.603C254.426 246.54 254.683 246.493 254.842 246.466ZM268.345 246.765C271.587 246.687 276.195 246.8 280.222 246.917C282.186 246.974 284.011 247.03 285.473 247.057C287.738 247.098 289.162 247.334 290.575 247.569C290.59 247.572 290.605 247.574 290.62 247.576C290.756 247.599 290.892 247.622 291.029 247.644C292.312 247.854 293.667 248.048 295.745 248.091C298.064 248.138 301.274 248 304.511 247.868C304.514 247.868 304.516 247.868 304.519 247.868C307.739 247.734 311.008 247.155 313.368 247.223C321.591 247.459 326.659 248.096 329.221 248.51C333.702 249.209 338.793 248.504 343.371 249.209C343.876 249.358 343.021 249.824 342.09 249.715C342.056 249.712 342.023 249.709 341.989 249.706C341.669 249.678 341.389 249.655 340.994 249.639C340.422 249.63 339.996 249.636 339.608 249.642C338.588 249.661 331.511 249.658 329.009 249.259C326.577 248.87 321.611 249.301 313.334 249.199C311.018 249.17 307.82 248.664 304.583 248.804C304.574 248.804 304.565 248.805 304.556 248.805C301.342 248.947 298.101 249.094 295.743 249.048C293.675 249.008 292.289 248.82 291.024 248.615C290.831 248.584 290.642 248.552 290.452 248.521C290.439 248.518 290.425 248.516 290.411 248.514C289.011 248.28 287.652 248.055 285.471 248.012C283.977 247.982 282.13 247.922 280.154 247.86C276.145 247.731 271.601 247.598 268.387 247.659C268.097 247.664 267.852 247.468 267.84 247.222C267.829 246.976 268.055 246.772 268.345 246.765ZM268.44 241.189C275.995 240.105 283.579 239.921 291.064 240.654C292.612 240.803 294.155 240.987 295.692 241.201C298.036 241.27 301.307 241.411 304.574 241.587C304.611 241.589 304.647 241.592 304.684 241.594C307.915 241.767 311.132 241.971 313.442 242.115C321.663 242.628 326.75 243.171 329.311 243.752C331.7 244.297 332.363 244.335 333.347 244.407C333.373 244.409 333.4 244.411 333.427 244.413C333.429 244.413 333.431 244.413 333.432 244.412C333.466 244.405 333.494 244.402 333.509 244.401C333.539 244.398 333.563 244.398 333.572 244.398C333.593 244.398 333.611 244.399 333.617 244.399C333.642 244.401 333.672 244.403 333.69 244.404C333.865 244.42 334.414 244.481 334.848 244.54C335.294 244.602 335.611 244.662 335.945 244.727C335.979 244.734 336.013 244.74 336.047 244.747C336.349 244.806 336.677 244.869 337.149 244.946C337.437 244.993 337.641 245.176 337.605 245.357C337.568 245.537 337.306 245.649 337.018 245.607C336.52 245.532 336.171 245.469 335.868 245.413C335.835 245.407 335.801 245.401 335.768 245.395C335.447 245.336 335.167 245.287 334.772 245.237C334.2 245.181 333.775 245.155 333.387 245.131C332.369 245.068 331.602 245.031 329.101 244.486C326.67 243.959 321.715 243.474 313.44 243.007C311.126 242.878 307.906 242.69 304.677 242.529C304.639 242.527 304.601 242.525 304.564 242.523C301.295 242.359 298.029 242.223 295.69 242.158C294.141 242.114 292.598 242.094 291.057 242.089C283.532 242.073 276.086 242.416 268.482 242.082C266.796 242.165 265.255 242.225 263.827 242.282C259.624 242.447 256.399 242.591 253.323 243.174C252.648 243.301 250.881 243.443 248.327 243.617C247.579 243.668 246.758 243.722 245.871 243.779C243.779 243.913 241.314 244.065 238.545 244.231C238.436 244.237 238.327 244.244 238.217 244.251C237.608 244.287 237.064 244.323 236.544 244.357C234.324 244.503 232.571 244.615 228.325 244.676C223.1 244.749 214.347 244.782 209.666 244.767C207.321 244.758 205.998 244.733 205.062 244.709C204.801 244.702 204.572 244.695 204.361 244.689C203.812 244.674 203.385 244.662 202.826 244.659C198.797 244.635 195.977 244.747 191.356 244.903C191.066 244.913 190.814 244.804 190.793 244.659C190.772 244.515 190.99 244.39 191.279 244.38C195.907 244.214 198.771 244.091 202.854 244.098C203.438 244.098 203.895 244.11 204.454 244.123C204.662 244.128 204.883 244.133 205.13 244.139C206.051 244.158 207.361 244.178 209.693 244.174C214.366 244.168 223.107 244.086 228.315 243.986C232.52 243.903 234.239 243.787 236.452 243.631C236.972 243.595 237.519 243.556 238.133 243.517C238.273 243.508 238.411 243.499 238.549 243.49C241.287 243.314 243.728 243.152 245.8 243.009C246.686 242.947 247.505 242.889 248.25 242.835C250.855 242.643 252.516 242.497 253.094 242.386C256.278 241.766 259.644 241.596 263.885 241.407C265.298 241.343 266.808 241.277 268.44 241.189ZM174.705 244.723C174.995 244.718 175.245 244.832 175.265 244.975C175.285 245.119 175.066 245.239 174.777 245.244C173.246 245.269 172.146 245.29 171.287 245.307C169.695 245.337 168.926 245.351 167.774 245.334C164.8 245.288 161.929 245.243 159.346 245.199C155.053 245.125 151.554 245.053 149.702 244.987C149.412 244.977 149.179 244.839 149.183 244.681C149.187 244.522 149.425 244.403 149.716 244.415C151.554 244.487 155.027 244.57 159.304 244.653C161.89 244.703 164.771 244.754 167.763 244.804C168.88 244.823 169.606 244.811 171.162 244.783C172.022 244.767 173.134 244.747 174.705 244.723Z" fill="url(#paint3_linear_152_1711)"/>
<path d="M150.149 291.152C151.717 291.153 153.659 290.967 155.21 291.047C155.232 291.048 155.253 291.049 155.275 291.05C155.909 291.082 156.555 291.132 157.336 291.192C157.436 291.2 157.538 291.208 157.642 291.216C158.568 291.287 159.706 291.371 161.256 291.462C166.463 291.763 170.57 291.51 171.848 291.436C174.411 291.284 177.143 291.279 180.872 291.286C181.213 291.287 181.562 291.288 181.921 291.289C182.211 291.29 182.451 291.406 182.457 291.548C182.462 291.691 182.232 291.807 181.942 291.806C181.591 291.805 181.249 291.804 180.916 291.804C180.914 291.804 180.913 291.804 180.911 291.804C177.159 291.798 174.486 291.806 171.984 291.956C170.678 292.033 166.47 292.296 161.135 291.999C159.567 291.911 158.417 291.829 157.485 291.761C157.383 291.753 157.284 291.745 157.187 291.738C157.185 291.738 157.182 291.738 157.18 291.738C156.394 291.679 155.775 291.633 155.168 291.604C155.156 291.603 155.143 291.603 155.13 291.602C153.561 291.526 151.656 291.719 150.135 291.723C149.845 291.724 149.612 291.596 149.616 291.438C149.62 291.279 149.859 291.152 150.149 291.152ZM256.032 290.589C257.547 290.319 259.561 290.389 261.338 290.566C263.128 290.743 264.747 291.037 265.509 291.215C266.254 291.389 267.082 291.46 268.07 291.515C268.297 291.528 268.532 291.539 268.775 291.552C269.578 291.592 270.472 291.637 271.452 291.731C275.054 292.078 277.403 292.141 279.081 292.146C279.426 292.148 279.747 292.146 280.047 292.145C280.048 292.145 280.048 292.145 280.049 292.145C281.183 292.141 282.03 292.136 282.807 292.256C284.192 292.469 285.322 292.656 286.686 293.007C287.939 293.331 289.549 293.425 291 293.356C291.726 293.321 292.413 293.246 292.995 293.141C293.091 293.124 293.189 293.105 293.289 293.087C294.555 292.857 296.114 292.572 298.452 292.352C300.393 292.169 302.085 292.173 303.582 292.209C304.011 292.219 304.42 292.232 304.813 292.244C305.805 292.274 306.693 292.299 307.53 292.266C312.718 292.066 315.709 292.158 317.588 292.342C319.033 292.484 319.84 292.685 320.422 292.828C320.598 292.871 320.753 292.91 320.9 292.939C322.204 293.198 323.402 293.281 324.844 293.37C325.164 293.389 325.497 293.409 325.845 293.43C327.008 293.502 327.875 293.426 328.556 293.332C328.853 293.291 329.115 293.246 329.362 293.204C329.367 293.203 329.371 293.202 329.376 293.201C329.41 293.195 329.444 293.19 329.478 293.184C329.504 293.179 329.53 293.174 329.555 293.17C329.565 293.166 329.574 293.163 329.581 293.16C329.586 293.158 329.59 293.156 329.593 293.155C329.594 293.155 329.594 293.155 329.595 293.154C329.643 293.137 329.685 293.129 329.693 293.127C329.708 293.124 329.722 293.122 329.728 293.121C329.764 293.116 329.81 293.111 329.841 293.108C329.919 293.101 330.056 293.09 330.267 293.074C330.451 293.052 330.628 293.023 330.849 292.987C330.863 292.984 330.877 292.982 330.891 292.98C331.106 292.944 331.359 292.903 331.675 292.859C331.963 292.819 332.227 292.947 332.265 293.145C332.302 293.343 332.099 293.539 331.811 293.582C331.513 293.627 331.277 293.669 331.061 293.707C331.047 293.709 331.034 293.711 331.02 293.714C330.795 293.753 330.582 293.791 330.352 293.82C330.276 293.829 330.196 293.838 330.122 293.846C329.989 293.865 329.837 293.891 329.656 293.924C329.62 293.931 329.582 293.937 329.544 293.944C329.297 293.989 329.01 294.042 328.686 294.09C327.928 294.202 326.968 294.294 325.703 294.227C325.371 294.21 325.049 294.193 324.735 294.177C323.287 294.101 321.999 294.024 320.615 293.758C320.425 293.721 320.243 293.677 320.048 293.631C319.47 293.492 318.781 293.324 317.445 293.203C315.655 293.039 312.735 292.966 307.576 293.189C306.698 293.226 305.751 293.204 304.742 293.177C304.357 293.167 303.962 293.157 303.559 293.148C302.085 293.118 300.447 293.119 298.572 293.3C296.287 293.52 294.77 293.798 293.509 294.029C293.466 294.037 293.422 294.045 293.379 294.053C293.324 294.063 293.271 294.073 293.217 294.083C292.572 294.2 291.806 294.283 290.995 294.319C289.469 294.386 287.781 294.28 286.425 293.928C285.121 293.589 284.039 293.408 282.662 293.192C281.985 293.086 281.261 293.089 280.15 293.089C279.838 293.09 279.494 293.089 279.114 293.086C277.406 293.075 275.021 293.004 271.379 292.636C270.43 292.54 269.575 292.493 268.777 292.449C268.529 292.436 268.285 292.422 268.047 292.408C267.054 292.347 266.13 292.268 265.269 292.063C264.562 291.895 262.995 291.6 261.254 291.418C259.5 291.234 257.638 291.17 256.306 291.4C256.168 291.424 256.028 291.447 255.889 291.471C254.687 291.675 253.462 291.877 252.475 292.238C248.999 294.055 243.33 293.585 238.5 293.22C237.174 293.116 235.912 293.009 234.775 292.939C234.706 292.935 234.637 292.93 234.567 292.926C228.478 292.548 224.051 292.384 222.542 292.328C222.472 292.325 222.408 292.323 222.351 292.321C222.299 292.319 222.253 292.318 222.212 292.316C221.597 292.293 221.053 292.293 220.483 292.294C220.452 292.294 220.421 292.294 220.39 292.294C219.788 292.294 219.156 292.292 218.409 292.259C215.632 292.135 213.367 292.07 211.408 292.021C211.046 292.012 210.693 292.002 210.349 291.994C210.348 291.994 210.347 291.994 210.346 291.994C208.837 291.957 207.499 291.926 206.229 291.879C203.912 291.793 202.348 291.777 201.131 291.774C200.749 291.774 200.397 291.774 200.065 291.775C199.348 291.777 198.721 291.779 198.074 291.768C196.858 291.746 195.739 291.752 194.637 291.76C194.539 291.76 194.44 291.761 194.342 291.761C193.147 291.77 191.964 291.778 190.713 291.755C190.423 291.75 190.182 291.628 190.177 291.484C190.172 291.34 190.403 291.227 190.694 291.231C191.909 291.251 193.063 291.241 194.258 291.229C194.356 291.228 194.455 291.227 194.555 291.226C195.654 291.215 196.794 291.206 198.032 291.224C198.655 291.233 199.248 291.229 199.951 291.224C200.287 291.222 200.649 291.22 201.051 291.219C202.286 291.216 203.872 291.226 206.21 291.302C207.465 291.343 208.787 291.368 210.295 291.397C210.641 291.404 210.997 291.411 211.364 291.418C213.328 291.458 215.604 291.511 218.396 291.62C219.102 291.648 219.701 291.647 220.301 291.644C220.334 291.643 220.368 291.643 220.402 291.643C220.966 291.64 221.541 291.635 222.19 291.657C222.277 291.66 222.388 291.664 222.521 291.668C224.032 291.715 228.476 291.855 234.589 292.206C234.608 292.207 234.627 292.208 234.645 292.209C236.153 292.296 237.419 292.367 238.504 292.416C240.365 292.5 241.693 292.526 242.792 292.444C244.166 292.341 245.193 292.336 246.035 292.346C246.196 292.348 246.348 292.35 246.493 292.352C247.119 292.362 247.614 292.369 248.109 292.332C249.605 292.218 250.679 291.983 251.98 291.504C253.082 291.098 254.431 290.868 255.613 290.662C255.615 290.662 255.617 290.662 255.619 290.661C255.759 290.637 255.897 290.613 256.032 290.589ZM335.846 292.138C336.137 292.127 336.369 292.271 336.365 292.459C336.361 292.648 336.123 292.814 335.832 292.829C335.14 292.864 334.448 292.897 333.756 292.929C333.466 292.942 333.234 292.792 333.238 292.592C333.242 292.393 333.48 292.223 333.771 292.213C334.463 292.19 335.154 292.165 335.846 292.138ZM254.842 286.476C255.125 286.428 255.407 286.571 255.47 286.794C255.533 287.016 255.354 287.235 255.071 287.281C254.921 287.305 254.674 287.349 254.343 287.408C252.022 287.834 245.515 288.912 238.52 289.167C238.321 289.175 238.12 289.182 237.92 289.188C237.312 289.208 236.767 289.228 236.248 289.246C234.028 289.328 232.243 289.808 227.998 289.707C213.269 289.339 198.551 288.599 183.839 288.633C180.722 288.637 177.605 288.668 174.488 288.737C169.34 288.852 164.208 288.866 159.056 288.859C154.762 288.855 146.893 288.576 145.041 288.545C144.75 288.54 144.518 288.404 144.522 288.241C144.526 288.078 144.764 287.95 145.054 287.956C146.893 287.994 154.736 288.299 159.014 288.312C164.156 288.332 169.277 288.326 174.416 288.216C177.556 288.149 180.698 288.1 183.842 288.064C198.56 287.904 213.302 288.013 228.029 288.184C232.234 288.229 233.943 288.606 236.155 288.519C236.676 288.498 237.223 288.475 237.837 288.453C238.067 288.445 238.296 288.435 238.524 288.425C245.385 288.139 251.746 287.051 254.084 286.612C254.426 286.55 254.683 286.503 254.842 286.476ZM268.345 286.774C271.587 286.697 276.195 286.81 280.222 286.927C282.186 286.984 284.011 287.04 285.473 287.067C287.738 287.108 289.162 287.344 290.575 287.579C290.59 287.581 290.605 287.584 290.62 287.586C290.756 287.609 290.892 287.631 291.029 287.654C292.312 287.864 293.667 288.057 295.745 288.1C298.064 288.148 301.274 288.009 304.511 287.878C304.514 287.878 304.516 287.878 304.519 287.878C307.739 287.744 311.008 287.165 313.368 287.233C321.591 287.469 326.659 288.106 329.221 288.52C333.702 289.219 338.793 288.514 343.371 289.219C343.876 289.367 343.021 289.834 342.09 289.725C342.056 289.722 342.023 289.719 341.989 289.716C341.669 289.688 341.389 289.665 340.994 289.648C340.422 289.64 339.996 289.646 339.608 289.652C338.588 289.671 331.511 289.667 329.009 289.268C326.577 288.88 321.611 289.311 313.334 289.209C311.018 289.18 307.82 288.674 304.583 288.814C304.574 288.814 304.565 288.814 304.556 288.815C301.342 288.957 298.101 289.104 295.743 289.058C293.675 289.018 292.289 288.83 291.024 288.625C290.831 288.594 290.642 288.562 290.452 288.531C290.439 288.528 290.425 288.526 290.411 288.523C289.011 288.29 287.652 288.065 285.471 288.021C283.977 287.992 282.13 287.932 280.154 287.87C276.145 287.741 271.601 287.608 268.387 287.669C268.097 287.674 267.852 287.478 267.84 287.232C267.829 286.986 268.055 286.781 268.345 286.774ZM268.44 281.198C275.995 280.115 283.579 279.931 291.064 280.664C292.612 280.813 294.155 280.997 295.692 281.211C298.036 281.279 301.307 281.421 304.574 281.597C304.611 281.599 304.647 281.601 304.684 281.604C307.915 281.777 311.132 281.981 313.442 282.124C321.663 282.637 326.75 283.181 329.311 283.762C331.7 284.307 332.363 284.345 333.347 284.417C333.373 284.419 333.4 284.421 333.427 284.423C333.429 284.423 333.431 284.422 333.432 284.422C333.466 284.415 333.494 284.412 333.509 284.41C333.539 284.408 333.563 284.408 333.572 284.408C333.593 284.408 333.611 284.409 333.617 284.409C333.642 284.41 333.672 284.412 333.69 284.414C333.865 284.43 334.414 284.49 334.848 284.55C335.294 284.611 335.611 284.672 335.945 284.737C335.979 284.744 336.013 284.75 336.047 284.757C336.349 284.816 336.677 284.879 337.149 284.955C337.437 285.002 337.641 285.186 337.605 285.366C337.568 285.547 337.306 285.659 337.018 285.616C336.52 285.542 336.171 285.478 335.868 285.423C335.835 285.417 335.801 285.411 335.768 285.404C335.447 285.346 335.167 285.297 334.772 285.247C334.2 285.191 333.775 285.165 333.387 285.141C332.369 285.078 331.602 285.041 329.101 284.496C326.67 283.969 321.715 283.484 313.44 283.017C311.126 282.888 307.906 282.7 304.677 282.538C304.639 282.537 304.601 282.535 304.564 282.533C301.295 282.369 298.029 282.233 295.69 282.168C294.141 282.124 292.598 282.104 291.057 282.099C283.532 282.083 276.086 282.425 268.482 282.092C266.796 282.175 265.255 282.235 263.827 282.291C259.624 282.456 256.399 282.601 253.323 283.184C252.648 283.311 250.881 283.452 248.327 283.627C247.579 283.678 246.758 283.732 245.871 283.789C243.779 283.923 241.314 284.074 238.545 284.241C238.436 284.247 238.327 284.254 238.217 284.261C237.608 284.297 237.064 284.333 236.544 284.367C234.324 284.513 232.571 284.624 228.325 284.686C223.1 284.759 214.347 284.792 209.666 284.776C207.321 284.768 205.998 284.743 205.062 284.719C204.801 284.712 204.572 284.705 204.361 284.699C203.812 284.683 203.385 284.671 202.826 284.668C198.797 284.645 195.977 284.757 191.356 284.913C191.066 284.923 190.814 284.813 190.793 284.669C190.772 284.525 190.99 284.4 191.279 284.39C195.907 284.224 198.771 284.1 202.854 284.107C203.438 284.108 203.895 284.119 204.454 284.133C204.662 284.138 204.883 284.143 205.13 284.149C206.051 284.168 207.361 284.187 209.693 284.184C214.366 284.177 223.107 284.095 228.315 283.995C232.52 283.913 234.239 283.796 236.452 283.641C236.972 283.605 237.519 283.566 238.133 283.526C238.273 283.517 238.411 283.509 238.549 283.5C241.287 283.324 243.728 283.162 245.8 283.018C246.686 282.957 247.505 282.899 248.25 282.844C250.855 282.653 252.516 282.507 253.094 282.395C256.278 281.776 259.644 281.605 263.885 281.417C265.298 281.353 266.808 281.287 268.44 281.198ZM174.705 284.733C174.995 284.728 175.245 284.841 175.265 284.985C175.285 285.129 175.066 285.249 174.777 285.254C173.246 285.279 172.146 285.3 171.287 285.316C169.695 285.347 168.926 285.361 167.774 285.344C164.8 285.298 161.929 285.253 159.346 285.209C155.053 285.135 151.554 285.063 149.702 284.997C149.412 284.986 149.179 284.849 149.183 284.69C149.187 284.532 149.425 284.413 149.716 284.425C151.554 284.497 155.027 284.579 159.304 284.663C161.89 284.713 164.771 284.763 167.763 284.814C168.88 284.832 169.606 284.82 171.162 284.793C172.022 284.777 173.134 284.757 174.705 284.733Z" fill="url(#paint4_linear_152_1711)"/>
<path d="M150.149 331.162C151.717 331.162 153.659 330.976 155.21 331.056C155.232 331.058 155.253 331.059 155.275 331.06C155.909 331.092 156.555 331.142 157.336 331.202C157.436 331.21 157.538 331.218 157.642 331.226C158.568 331.296 159.706 331.38 161.256 331.471C166.463 331.773 170.57 331.519 171.848 331.445C174.411 331.294 177.143 331.289 180.872 331.296C181.213 331.296 181.562 331.298 181.921 331.299C182.211 331.299 182.451 331.415 182.457 331.558C182.462 331.701 182.232 331.816 181.942 331.816C181.591 331.815 181.249 331.814 180.916 331.814C180.914 331.814 180.913 331.814 180.911 331.814C177.159 331.807 174.486 331.815 171.984 331.966C170.678 332.043 166.47 332.306 161.135 332.009C159.567 331.921 158.417 331.839 157.485 331.77C157.383 331.763 157.284 331.755 157.187 331.748C157.185 331.748 157.182 331.748 157.18 331.747C156.394 331.689 155.775 331.643 155.168 331.613C155.156 331.613 155.143 331.612 155.13 331.612C153.561 331.535 151.656 331.729 150.135 331.733C149.845 331.733 149.612 331.606 149.616 331.447C149.62 331.289 149.859 331.162 150.149 331.162ZM256.032 330.599C257.547 330.329 259.561 330.398 261.338 330.576C263.128 330.753 264.747 331.047 265.509 331.225C266.254 331.399 267.082 331.47 268.07 331.525C268.297 331.538 268.532 331.549 268.775 331.561C269.578 331.602 270.472 331.646 271.452 331.741C275.054 332.088 277.403 332.15 279.081 332.156C279.426 332.157 279.747 332.156 280.047 332.155C280.048 332.155 280.048 332.155 280.049 332.155C281.183 332.151 282.03 332.145 282.807 332.265C284.192 332.479 285.322 332.665 286.686 333.017C287.939 333.341 289.549 333.435 291 333.365C291.726 333.331 292.413 333.256 292.995 333.151C293.091 333.134 293.189 333.115 293.289 333.097C294.555 332.867 296.114 332.582 298.452 332.362C300.393 332.179 302.085 332.183 303.582 332.218C304.011 332.229 304.42 332.242 304.813 332.254C305.805 332.284 306.693 332.308 307.53 332.276C312.718 332.076 315.709 332.168 317.588 332.352C319.033 332.494 319.84 332.695 320.422 332.838C320.598 332.881 320.753 332.92 320.9 332.949C322.204 333.208 323.402 333.29 324.844 333.379C325.164 333.399 325.497 333.419 325.845 333.44C327.008 333.511 327.875 333.436 328.556 333.342C328.853 333.301 329.115 333.256 329.362 333.214C329.367 333.213 329.371 333.212 329.376 333.211C329.41 333.205 329.444 333.199 329.478 333.194C329.504 333.189 329.53 333.184 329.555 333.18C329.565 333.175 329.574 333.172 329.581 333.17C329.586 333.168 329.59 333.166 329.593 333.165C329.594 333.165 329.594 333.165 329.595 333.164C329.643 333.147 329.685 333.139 329.693 333.137C329.708 333.134 329.722 333.132 329.728 333.131C329.764 333.126 329.81 333.121 329.841 333.118C329.919 333.111 330.056 333.099 330.267 333.084C330.451 333.062 330.628 333.033 330.849 332.996C330.863 332.994 330.877 332.992 330.891 332.989C331.106 332.954 331.359 332.913 331.675 332.869C331.963 332.829 332.227 332.957 332.265 333.155C332.302 333.353 332.099 333.549 331.811 333.592C331.513 333.637 331.277 333.678 331.061 333.716C331.047 333.719 331.034 333.721 331.02 333.724C330.795 333.763 330.582 333.8 330.352 333.83C330.276 333.839 330.196 333.848 330.122 333.856C329.989 333.874 329.837 333.901 329.656 333.934C329.62 333.94 329.582 333.947 329.544 333.954C329.297 333.999 329.01 334.052 328.686 334.1C327.928 334.212 326.968 334.303 325.703 334.237C325.371 334.219 325.049 334.203 324.735 334.187C323.287 334.11 321.999 334.034 320.615 333.767C320.425 333.731 320.243 333.687 320.048 333.64C319.47 333.502 318.781 333.334 317.445 333.212C315.655 333.049 312.735 332.976 307.576 333.198C306.698 333.236 305.751 333.213 304.742 333.187C304.357 333.176 303.962 333.166 303.559 333.158C302.085 333.128 300.447 333.129 298.572 333.31C296.287 333.529 294.77 333.808 293.509 334.039C293.466 334.047 293.422 334.055 293.379 334.063C293.324 334.073 293.271 334.083 293.217 334.093C292.572 334.21 291.806 334.293 290.995 334.328C289.469 334.395 287.781 334.29 286.425 333.937C285.121 333.599 284.039 333.417 282.662 333.202C281.985 333.096 281.261 333.098 280.15 333.099C279.838 333.099 279.494 333.099 279.114 333.096C277.406 333.085 275.021 333.014 271.379 332.646C270.43 332.55 269.575 332.503 268.777 332.459C268.529 332.446 268.285 332.432 268.047 332.417C267.054 332.357 266.13 332.278 265.269 332.073C264.562 331.905 262.995 331.61 261.254 331.428C259.5 331.243 257.638 331.179 256.306 331.41C256.168 331.434 256.028 331.457 255.889 331.481C254.687 331.685 253.462 331.887 252.475 332.247C248.999 334.065 243.33 333.594 238.5 333.23C237.174 333.126 235.912 333.019 234.775 332.949C234.706 332.944 234.637 332.94 234.567 332.936C228.478 332.558 224.051 332.393 222.542 332.338C222.472 332.335 222.408 332.333 222.351 332.331C222.299 332.329 222.253 332.327 222.212 332.326C221.597 332.302 221.053 332.303 220.483 332.304C220.452 332.304 220.421 332.304 220.39 332.304C219.788 332.304 219.156 332.302 218.409 332.269C215.632 332.145 213.367 332.08 211.408 332.031C211.046 332.021 210.693 332.012 210.349 332.004C210.348 332.004 210.347 332.004 210.346 332.004C208.837 331.967 207.499 331.936 206.229 331.889C203.912 331.803 202.348 331.786 201.131 331.784C200.749 331.783 200.397 331.784 200.065 331.785C199.348 331.787 198.721 331.789 198.074 331.777C196.858 331.755 195.739 331.762 194.637 331.769C194.539 331.77 194.44 331.77 194.342 331.771C193.147 331.78 191.964 331.788 190.713 331.765C190.423 331.76 190.182 331.638 190.177 331.494C190.172 331.35 190.403 331.236 190.694 331.241C191.909 331.261 193.063 331.25 194.258 331.239C194.356 331.238 194.455 331.236 194.555 331.235C195.654 331.225 196.794 331.215 198.032 331.234C198.655 331.243 199.248 331.239 199.951 331.234C200.287 331.232 200.649 331.229 201.051 331.229C202.286 331.226 203.872 331.236 206.21 331.312C207.465 331.353 208.787 331.378 210.295 331.407C210.641 331.413 210.997 331.42 211.364 331.428C213.328 331.468 215.604 331.52 218.396 331.63C219.102 331.658 219.701 331.657 220.301 331.653C220.334 331.653 220.368 331.653 220.402 331.653C220.966 331.65 221.541 331.645 222.19 331.667C222.277 331.669 222.388 331.673 222.521 331.678C224.032 331.725 228.476 331.865 234.589 332.215C234.608 332.217 234.627 332.218 234.645 332.219C236.153 332.305 237.419 332.377 238.504 332.426C240.365 332.51 241.693 332.536 242.792 332.454C244.166 332.351 245.193 332.346 246.035 332.356C246.196 332.358 246.348 332.36 246.493 332.362C247.119 332.371 247.614 332.379 248.109 332.342C249.605 332.228 250.679 331.993 251.98 331.514C253.082 331.108 254.431 330.878 255.613 330.672C255.615 330.672 255.617 330.672 255.619 330.671C255.759 330.647 255.897 330.623 256.032 330.599ZM335.846 332.148C336.137 332.137 336.369 332.28 336.365 332.469C336.361 332.658 336.123 332.824 335.832 332.839C335.14 332.874 334.448 332.907 333.756 332.939C333.466 332.952 333.234 332.801 333.238 332.602C333.242 332.403 333.48 332.233 333.771 332.223C334.463 332.2 335.154 332.174 335.846 332.148ZM254.842 326.486C255.125 326.438 255.407 326.58 255.47 326.803C255.533 327.026 255.354 327.244 255.071 327.29C254.921 327.315 254.674 327.359 254.343 327.418C252.022 327.843 245.515 328.921 238.52 329.177C238.321 329.184 238.12 329.192 237.92 329.198C237.312 329.218 236.767 329.237 236.248 329.256C234.028 329.337 232.243 329.818 227.998 329.717C213.269 329.348 198.551 328.609 183.839 328.642C180.722 328.647 177.605 328.678 174.488 328.747C169.34 328.861 164.208 328.876 159.056 328.869C154.762 328.864 146.893 328.585 145.041 328.554C144.75 328.55 144.518 328.414 144.522 328.251C144.526 328.088 144.764 327.96 145.054 327.966C146.893 328.004 154.736 328.308 159.014 328.322C164.156 328.341 169.277 328.335 174.416 328.226C177.556 328.159 180.698 328.11 183.842 328.074C198.56 327.913 213.302 328.023 228.029 328.193C232.234 328.239 233.943 328.616 236.155 328.529C236.676 328.508 237.223 328.485 237.837 328.463C238.067 328.454 238.296 328.445 238.524 328.435C245.385 328.149 251.746 327.061 254.084 326.622C254.426 326.56 254.683 326.512 254.842 326.486ZM268.345 326.784C271.587 326.707 276.195 326.82 280.222 326.937C282.186 326.993 284.011 327.05 285.473 327.076C287.738 327.117 289.162 327.354 290.575 327.589C290.59 327.591 290.605 327.594 290.62 327.596C290.756 327.619 290.892 327.641 291.029 327.664C292.312 327.874 293.667 328.067 295.745 328.11C298.064 328.158 301.274 328.019 304.511 327.888C304.514 327.888 304.516 327.888 304.519 327.888C307.739 327.754 311.008 327.174 313.368 327.243C321.591 327.479 326.659 328.115 329.221 328.53C333.702 329.229 338.793 328.524 343.371 329.229C343.876 329.377 343.021 329.844 342.09 329.735C342.056 329.732 342.023 329.729 341.989 329.726C341.669 329.698 341.389 329.674 340.994 329.658C340.422 329.65 339.996 329.656 339.608 329.662C338.588 329.681 331.511 329.677 329.009 329.278C326.577 328.89 321.611 329.321 313.334 329.219C311.018 329.189 307.82 328.684 304.583 328.823C304.574 328.824 304.565 328.824 304.556 328.824C301.342 328.966 298.101 329.114 295.743 329.068C293.675 329.028 292.289 328.839 291.024 328.635C290.831 328.603 290.642 328.572 290.452 328.54C290.439 328.538 290.425 328.536 290.411 328.533C289.011 328.3 287.652 328.074 285.471 328.031C283.977 328.002 282.13 327.942 280.154 327.879C276.145 327.751 271.601 327.618 268.387 327.678C268.097 327.684 267.852 327.488 267.84 327.242C267.829 326.996 268.055 326.791 268.345 326.784ZM268.44 321.208C275.995 320.125 283.579 319.941 291.064 320.674C292.612 320.823 294.155 321.007 295.692 321.221C298.036 321.289 301.307 321.43 304.574 321.607C304.611 321.609 304.647 321.611 304.684 321.614C307.915 321.787 311.132 321.991 313.442 322.134C321.663 322.647 326.75 323.191 329.311 323.772C331.7 324.317 332.363 324.355 333.347 324.427C333.373 324.429 333.4 324.431 333.427 324.433C333.429 324.433 333.431 324.432 333.432 324.432C333.466 324.425 333.494 324.421 333.509 324.42C333.539 324.418 333.563 324.417 333.572 324.417C333.593 324.417 333.611 324.418 333.617 324.419C333.642 324.42 333.672 324.422 333.69 324.424C333.865 324.44 334.414 324.5 334.848 324.56C335.294 324.621 335.611 324.682 335.945 324.747C335.979 324.753 336.013 324.76 336.047 324.767C336.349 324.825 336.677 324.889 337.149 324.965C337.437 325.012 337.641 325.196 337.605 325.376C337.568 325.557 337.306 325.669 337.018 325.626C336.52 325.552 336.171 325.488 335.868 325.433C335.835 325.427 335.801 325.42 335.768 325.414C335.447 325.356 335.167 325.306 334.772 325.256C334.2 325.201 333.775 325.174 333.387 325.151C332.369 325.087 331.602 325.051 329.101 324.505C326.67 323.978 321.715 323.493 313.44 323.027C311.126 322.897 307.906 322.71 304.677 322.548C304.639 322.546 304.601 322.545 304.564 322.543C301.295 322.378 298.029 322.243 295.69 322.177C294.141 322.133 292.598 322.114 291.057 322.109C283.532 322.093 276.086 322.435 268.482 322.101C266.796 322.185 265.255 322.245 263.827 322.301C259.624 322.466 256.399 322.611 253.323 323.193C252.648 323.321 250.881 323.462 248.327 323.637C247.579 323.688 246.758 323.741 245.871 323.798C243.779 323.933 241.314 324.084 238.545 324.25C238.436 324.257 238.327 324.264 238.217 324.27C237.608 324.307 237.064 324.343 236.544 324.376C234.324 324.523 232.571 324.634 228.325 324.695C223.1 324.769 214.347 324.802 209.666 324.786C207.321 324.778 205.998 324.752 205.062 324.728C204.801 324.722 204.572 324.715 204.361 324.709C203.812 324.693 203.385 324.681 202.826 324.678C198.797 324.655 195.977 324.767 191.356 324.923C191.066 324.933 190.814 324.823 190.793 324.679C190.772 324.535 190.99 324.41 191.279 324.399C195.907 324.234 198.771 324.11 202.854 324.117C203.438 324.118 203.895 324.129 204.454 324.143C204.662 324.148 204.883 324.153 205.13 324.158C206.051 324.178 207.361 324.197 209.693 324.194C214.366 324.187 223.107 324.105 228.315 324.005C232.52 323.923 234.239 323.806 236.452 323.651C236.972 323.614 237.519 323.576 238.133 323.536C238.273 323.527 238.411 323.518 238.549 323.509C241.287 323.334 243.728 323.172 245.8 323.028C246.686 322.967 247.505 322.909 248.25 322.854C250.855 322.662 252.516 322.517 253.094 322.405C256.278 321.785 259.644 321.615 263.885 321.426C265.298 321.363 266.808 321.297 268.44 321.208ZM174.705 324.742C174.995 324.738 175.245 324.851 175.265 324.995C175.285 325.139 175.066 325.259 174.777 325.264C173.246 325.289 172.146 325.31 171.287 325.326C169.695 325.356 168.926 325.371 167.774 325.353C164.8 325.308 161.929 325.263 159.346 325.219C155.053 325.145 151.554 325.073 149.702 325.006C149.412 324.996 149.179 324.859 149.183 324.7C149.187 324.542 149.425 324.423 149.716 324.434C151.554 324.506 155.027 324.589 159.304 324.672C161.89 324.723 164.771 324.773 167.763 324.823C168.88 324.842 169.606 324.83 171.162 324.802C172.022 324.787 173.134 324.767 174.705 324.742Z" fill="url(#paint5_linear_152_1711)"/>
<path d="M150.149 371.172C151.717 371.172 153.659 370.986 155.21 371.066C155.232 371.067 155.253 371.068 155.275 371.069C155.909 371.102 156.555 371.152 157.336 371.212C157.436 371.219 157.538 371.227 157.642 371.235C158.568 371.306 159.706 371.39 161.256 371.481C166.463 371.782 170.57 371.529 171.848 371.455C174.411 371.304 177.143 371.298 180.872 371.305C181.213 371.306 181.562 371.308 181.921 371.308C182.211 371.309 182.451 371.425 182.457 371.568C182.462 371.711 182.232 371.826 181.942 371.825C181.591 371.825 181.249 371.824 180.916 371.823C180.914 371.823 180.913 371.823 180.911 371.823C177.159 371.817 174.486 371.825 171.984 371.975C170.678 372.052 166.47 372.316 161.135 372.019C159.567 371.931 158.417 371.849 157.485 371.78C157.383 371.773 157.284 371.765 157.187 371.758C157.185 371.758 157.182 371.757 157.18 371.757C156.394 371.699 155.775 371.652 155.168 371.623C155.156 371.623 155.143 371.622 155.13 371.622C153.561 371.545 151.656 371.738 150.135 371.743C149.845 371.743 149.612 371.615 149.616 371.457C149.62 371.299 149.859 371.171 150.149 371.172ZM256.032 370.609C257.547 370.339 259.561 370.408 261.338 370.585C263.128 370.763 264.747 371.057 265.509 371.235C266.254 371.408 267.082 371.48 268.07 371.535C268.297 371.547 268.532 371.559 268.775 371.571C269.578 371.612 270.472 371.656 271.452 371.75C275.054 372.098 277.403 372.16 279.081 372.166C279.426 372.167 279.747 372.166 280.047 372.165C280.048 372.165 280.048 372.165 280.049 372.165C281.183 372.16 282.03 372.155 282.807 372.275C284.192 372.488 285.322 372.675 286.686 373.027C287.939 373.351 289.549 373.445 291 373.375C291.726 373.341 292.413 373.266 292.995 373.161C293.091 373.143 293.189 373.125 293.289 373.107C294.555 372.876 296.114 372.591 298.452 372.372C300.393 372.189 302.085 372.192 303.582 372.228C304.011 372.238 304.42 372.252 304.813 372.264C305.805 372.294 306.693 372.318 307.53 372.286C312.718 372.086 315.709 372.178 317.588 372.362C319.033 372.504 319.84 372.704 320.422 372.848C320.598 372.891 320.753 372.929 320.9 372.959C322.204 373.218 323.402 373.3 324.844 373.389C325.164 373.409 325.497 373.429 325.845 373.45C327.008 373.521 327.875 373.446 328.556 373.352C328.853 373.311 329.115 373.266 329.362 373.223C329.367 373.222 329.371 373.221 329.376 373.221C329.41 373.215 329.444 373.209 329.478 373.203C329.504 373.199 329.53 373.194 329.555 373.189C329.565 373.185 329.574 373.182 329.581 373.179C329.586 373.177 329.59 373.176 329.593 373.175C329.594 373.175 329.594 373.174 329.595 373.174C329.643 373.157 329.685 373.148 329.693 373.147C329.708 373.144 329.722 373.142 329.728 373.141C329.764 373.135 329.81 373.131 329.841 373.128C329.919 373.12 330.056 373.109 330.267 373.093C330.451 373.072 330.628 373.043 330.849 373.006C330.863 373.004 330.877 373.001 330.891 372.999C331.106 372.963 331.359 372.922 331.675 372.878C331.963 372.838 332.227 372.967 332.265 373.165C332.302 373.363 332.099 373.558 331.811 373.602C331.513 373.647 331.277 373.688 331.061 373.726C331.047 373.729 331.034 373.731 331.02 373.734C330.795 373.773 330.582 373.81 330.352 373.839C330.276 373.849 330.196 373.858 330.122 373.866C329.989 373.884 329.837 373.911 329.656 373.944C329.62 373.95 329.582 373.957 329.544 373.964C329.297 374.009 329.01 374.061 328.686 374.109C327.928 374.222 326.968 374.313 325.703 374.247C325.371 374.229 325.049 374.213 324.735 374.197C323.287 374.12 321.999 374.043 320.615 373.777C320.425 373.74 320.243 373.697 320.048 373.65C319.47 373.511 318.781 373.344 317.445 373.222C315.655 373.058 312.735 372.985 307.576 373.208C306.698 373.246 305.751 373.223 304.742 373.196C304.357 373.186 303.962 373.176 303.559 373.168C302.085 373.138 300.447 373.139 298.572 373.319C296.287 373.539 294.77 373.818 293.509 374.048C293.466 374.057 293.422 374.065 293.379 374.073C293.324 374.083 293.271 374.093 293.217 374.102C292.572 374.219 291.806 374.303 290.995 374.338C289.469 374.405 287.781 374.3 286.425 373.947C285.121 373.609 284.039 373.427 282.662 373.212C281.985 373.106 281.261 373.108 280.15 373.109C279.838 373.109 279.494 373.108 279.114 373.106C277.406 373.095 275.021 373.024 271.379 372.656C270.43 372.56 269.575 372.513 268.777 372.469C268.529 372.455 268.285 372.442 268.047 372.427C267.054 372.367 266.13 372.288 265.269 372.083C264.562 371.914 262.995 371.62 261.254 371.437C259.5 371.253 257.638 371.189 256.306 371.42C256.168 371.444 256.028 371.467 255.889 371.491C254.687 371.694 253.462 371.897 252.475 372.257C248.999 374.075 243.33 373.604 238.5 373.24C237.174 373.136 235.912 373.029 234.775 372.958C234.706 372.954 234.637 372.95 234.567 372.946C228.478 372.568 224.051 372.403 222.542 372.348C222.472 372.345 222.408 372.343 222.351 372.341C222.299 372.339 222.253 372.337 222.212 372.336C221.597 372.312 221.053 372.313 220.483 372.313C220.452 372.313 220.421 372.313 220.39 372.313C219.788 372.314 219.156 372.312 218.409 372.278C215.632 372.154 213.367 372.09 211.408 372.04C211.046 372.031 210.693 372.022 210.349 372.014C210.348 372.014 210.347 372.014 210.346 372.014C208.837 371.977 207.499 371.945 206.229 371.898C203.912 371.813 202.348 371.796 201.131 371.794C200.749 371.793 200.397 371.794 200.065 371.795C199.348 371.797 198.721 371.799 198.074 371.787C196.858 371.765 195.739 371.772 194.637 371.779C194.539 371.78 194.44 371.78 194.342 371.781C193.147 371.79 191.964 371.798 190.713 371.775C190.423 371.77 190.182 371.648 190.177 371.504C190.172 371.359 190.403 371.246 190.694 371.251C191.909 371.271 193.063 371.26 194.258 371.248C194.356 371.247 194.455 371.246 194.555 371.245C195.654 371.234 196.794 371.225 198.032 371.243C198.655 371.253 199.248 371.248 199.951 371.244C200.287 371.242 200.649 371.239 201.051 371.238C202.286 371.236 203.872 371.246 206.21 371.322C207.465 371.362 208.787 371.387 210.295 371.417C210.641 371.423 210.997 371.43 211.364 371.438C213.328 371.477 215.604 371.53 218.396 371.64C219.102 371.668 219.701 371.667 220.301 371.663C220.334 371.663 220.368 371.663 220.402 371.663C220.966 371.659 221.541 371.655 222.19 371.676C222.277 371.679 222.388 371.683 222.521 371.687C224.032 371.735 228.476 371.875 234.589 372.225C234.608 372.226 234.627 372.228 234.645 372.229C236.153 372.315 237.419 372.387 238.504 372.436C240.365 372.52 241.693 372.546 242.792 372.464C244.166 372.361 245.193 372.356 246.035 372.366C246.196 372.368 246.348 372.369 246.493 372.372C247.119 372.381 247.614 372.389 248.109 372.351C249.605 372.237 250.679 372.002 251.98 371.524C253.082 371.117 254.431 370.887 255.613 370.682C255.615 370.682 255.617 370.681 255.619 370.681C255.759 370.657 255.897 370.633 256.032 370.609ZM335.846 372.158C336.137 372.147 336.369 372.29 336.365 372.479C336.361 372.668 336.123 372.834 335.832 372.849C335.14 372.884 334.448 372.917 333.756 372.948C333.466 372.962 333.234 372.811 333.238 372.612C333.242 372.412 333.48 372.243 333.771 372.233C334.463 372.209 335.154 372.184 335.846 372.158ZM254.842 366.496C255.125 366.448 255.407 366.59 255.47 366.813C255.533 367.036 255.354 367.254 255.071 367.3C254.921 367.325 254.674 367.369 254.343 367.428C252.022 367.853 245.515 368.931 238.52 369.186C238.321 369.194 238.12 369.201 237.92 369.208C237.312 369.227 236.767 369.247 236.248 369.266C234.028 369.347 232.243 369.827 227.998 369.726C213.269 369.358 198.551 368.618 183.839 368.652C180.722 368.657 177.605 368.688 174.488 368.757C169.34 368.871 164.208 368.886 159.056 368.878C154.762 368.874 146.893 368.595 145.041 368.564C144.75 368.56 144.518 368.424 144.522 368.26C144.526 368.097 144.764 367.97 145.054 367.976C146.893 368.014 154.736 368.318 159.014 368.332C164.156 368.351 169.277 368.345 174.416 368.236C177.556 368.169 180.698 368.12 183.842 368.084C198.56 367.923 213.302 368.032 228.029 368.203C232.234 368.249 233.943 368.626 236.155 368.538C236.676 368.517 237.223 368.495 237.837 368.472C238.067 368.464 238.296 368.455 238.524 368.445C245.385 368.159 251.746 367.071 254.084 366.632C254.426 366.569 254.683 366.522 254.842 366.496ZM268.345 366.794C271.587 366.717 276.195 366.83 280.222 366.947C282.186 367.003 284.011 367.06 285.473 367.086C287.738 367.127 289.162 367.363 290.575 367.598C290.59 367.601 290.605 367.603 290.62 367.606C290.756 367.628 290.892 367.651 291.029 367.673C292.312 367.884 293.667 368.077 295.745 368.12C298.064 368.168 301.274 368.029 304.511 367.898C304.514 367.898 304.516 367.898 304.519 367.898C307.739 367.764 311.008 367.184 313.368 367.253C321.591 367.489 326.659 368.125 329.221 368.539C333.702 369.239 338.793 368.533 343.371 369.239C343.876 369.387 343.021 369.853 342.09 369.745C342.056 369.742 342.023 369.739 341.989 369.736C341.669 369.707 341.389 369.684 340.994 369.668C340.422 369.659 339.996 369.666 339.608 369.672C338.588 369.691 331.511 369.687 329.009 369.288C326.577 368.899 321.611 369.331 313.334 369.228C311.018 369.199 307.82 368.693 304.583 368.833C304.574 368.834 304.565 368.834 304.556 368.834C301.342 368.976 298.101 369.123 295.743 369.078C293.675 369.038 292.289 368.849 291.024 368.644C290.831 368.613 290.642 368.582 290.452 368.55C290.439 368.548 290.425 368.545 290.411 368.543C289.011 368.31 287.652 368.084 285.471 368.041C283.977 368.011 282.13 367.952 280.154 367.889C276.145 367.761 271.601 367.628 268.387 367.688C268.097 367.693 267.852 367.498 267.84 367.252C267.829 367.005 268.055 366.801 268.345 366.794ZM268.44 361.218C275.995 360.134 283.579 359.95 291.064 360.683C292.612 360.833 294.155 361.017 295.692 361.23C298.036 361.299 301.307 361.44 304.574 361.616C304.611 361.619 304.647 361.621 304.684 361.623C307.915 361.797 311.132 362.001 313.442 362.144C321.663 362.657 326.75 363.201 329.311 363.782C331.7 364.326 332.363 364.364 333.347 364.436C333.373 364.438 333.4 364.441 333.427 364.443C333.429 364.442 333.431 364.442 333.432 364.441C333.466 364.434 333.494 364.431 333.509 364.43C333.539 364.427 333.563 364.427 333.572 364.427C333.593 364.427 333.611 364.428 333.617 364.429C333.642 364.43 333.672 364.432 333.69 364.434C333.865 364.45 334.414 364.51 334.848 364.57C335.294 364.631 335.611 364.691 335.945 364.756C335.979 364.763 336.013 364.77 336.047 364.776C336.349 364.835 336.677 364.899 337.149 364.975C337.437 365.022 337.641 365.205 337.605 365.386C337.568 365.566 337.306 365.679 337.018 365.636C336.52 365.561 336.171 365.498 335.868 365.443C335.835 365.436 335.801 365.43 335.768 365.424C335.447 365.365 335.167 365.316 334.772 365.266C334.2 365.211 333.775 365.184 333.387 365.161C332.369 365.097 331.602 365.061 329.101 364.515C326.67 363.988 321.715 363.503 313.44 363.036C311.126 362.907 307.906 362.719 304.677 362.558C304.639 362.556 304.601 362.554 304.564 362.552C301.295 362.388 298.029 362.253 295.69 362.187C294.141 362.143 292.598 362.123 291.057 362.119C283.532 362.103 276.086 362.445 268.482 362.111C266.796 362.194 265.255 362.254 263.827 362.311C259.624 362.476 256.399 362.62 253.323 363.203C252.648 363.331 250.881 363.472 248.327 363.646C247.579 363.697 246.758 363.751 245.871 363.808C243.779 363.943 241.314 364.094 238.545 364.26C238.436 364.267 238.327 364.273 238.217 364.28C237.608 364.317 237.064 364.352 236.544 364.386C234.324 364.532 232.571 364.644 228.325 364.705C223.1 364.779 214.347 364.812 209.666 364.796C207.321 364.788 205.998 364.762 205.062 364.738C204.801 364.731 204.572 364.725 204.361 364.719C203.812 364.703 203.385 364.691 202.826 364.688C198.797 364.665 195.977 364.776 191.356 364.933C191.066 364.942 190.814 364.833 190.793 364.689C190.772 364.544 190.99 364.419 191.279 364.409C195.907 364.243 198.771 364.12 202.854 364.127C203.438 364.128 203.895 364.139 204.454 364.152C204.662 364.157 204.883 364.163 205.13 364.168C206.051 364.188 207.361 364.207 209.693 364.204C214.366 364.197 223.107 364.115 228.315 364.015C232.52 363.932 234.239 363.816 236.452 363.661C236.972 363.624 237.519 363.586 238.133 363.546C238.273 363.537 238.411 363.528 238.549 363.519C241.287 363.344 243.728 363.182 245.8 363.038C246.686 362.977 247.505 362.919 248.25 362.864C250.855 362.672 252.516 362.527 253.094 362.415C256.278 361.795 259.644 361.625 263.885 361.436C265.298 361.373 266.808 361.307 268.44 361.218ZM174.705 364.752C174.995 364.748 175.245 364.861 175.265 365.005C175.285 365.148 175.066 365.269 174.777 365.273C173.246 365.298 172.146 365.319 171.287 365.336C169.695 365.366 168.926 365.381 167.774 365.363C164.8 365.318 161.929 365.273 159.346 365.228C155.053 365.155 151.554 365.083 149.702 365.016C149.412 365.006 149.179 364.869 149.183 364.71C149.187 364.552 149.425 364.433 149.716 364.444C151.554 364.516 155.027 364.599 159.304 364.682C161.89 364.733 164.771 364.783 167.763 364.833C168.88 364.852 169.606 364.84 171.162 364.812C172.022 364.797 173.134 364.776 174.705 364.752Z" fill="url(#paint6_linear_152_1711)"/>
<path d="M150.149 411.181C151.717 411.182 153.659 410.996 155.21 411.076C155.232 411.077 155.253 411.078 155.275 411.079C155.909 411.112 156.555 411.161 157.336 411.221C157.436 411.229 157.538 411.237 157.642 411.245C158.568 411.316 159.706 411.4 161.256 411.491C166.463 411.792 170.57 411.539 171.848 411.465C174.411 411.313 177.143 411.308 180.872 411.315C181.213 411.316 181.562 411.317 181.921 411.318C182.211 411.319 182.451 411.435 182.457 411.578C182.462 411.721 182.232 411.836 181.942 411.835C181.591 411.834 181.249 411.834 180.916 411.833C180.914 411.833 180.913 411.833 180.911 411.833C177.159 411.827 174.486 411.835 171.984 411.985C170.678 412.062 166.47 412.325 161.135 412.029C159.567 411.94 158.417 411.859 157.485 411.79C157.383 411.782 157.284 411.775 157.187 411.768C157.185 411.767 157.182 411.767 157.18 411.767C156.394 411.709 155.775 411.662 155.168 411.633C155.156 411.632 155.143 411.632 155.13 411.631C153.561 411.555 151.656 411.748 150.135 411.752C149.845 411.753 149.612 411.625 149.616 411.467C149.62 411.309 149.859 411.181 150.149 411.181ZM256.032 410.618C257.547 410.348 259.561 410.418 261.338 410.595C263.128 410.773 264.747 411.067 265.509 411.245C266.254 411.418 267.082 411.489 268.07 411.544C268.297 411.557 268.532 411.569 268.775 411.581C269.578 411.621 270.472 411.666 271.452 411.76C275.054 412.108 277.403 412.17 279.081 412.176C279.426 412.177 279.747 412.176 280.047 412.174C280.048 412.175 280.048 412.175 280.049 412.175C281.183 412.17 282.03 412.165 282.807 412.285C284.192 412.498 285.322 412.685 286.686 413.037C287.939 413.36 289.549 413.454 291 413.385C291.726 413.35 292.413 413.276 292.995 413.17C293.091 413.153 293.189 413.135 293.289 413.117C294.555 412.886 296.114 412.601 298.452 412.381C300.393 412.199 302.085 412.202 303.582 412.238C304.011 412.248 304.42 412.262 304.813 412.273C305.805 412.303 306.693 412.328 307.53 412.296C312.718 412.096 315.709 412.188 317.588 412.372C319.033 412.513 319.84 412.714 320.422 412.857C320.598 412.901 320.753 412.939 320.9 412.968C322.204 413.228 323.402 413.31 324.844 413.399C325.164 413.418 325.497 413.438 325.845 413.46C327.008 413.531 327.875 413.455 328.556 413.362C328.853 413.32 329.115 413.276 329.362 413.233C329.367 413.232 329.371 413.231 329.376 413.23C329.41 413.224 329.444 413.219 329.478 413.213C329.504 413.209 329.53 413.204 329.555 413.199C329.565 413.195 329.574 413.192 329.581 413.189C329.586 413.187 329.59 413.186 329.593 413.185C329.594 413.184 329.594 413.184 329.595 413.184C329.643 413.166 329.685 413.158 329.693 413.156C329.708 413.153 329.722 413.152 329.728 413.151C329.764 413.145 329.81 413.14 329.841 413.138C329.919 413.13 330.056 413.119 330.267 413.103C330.451 413.081 330.628 413.052 330.849 413.016C330.863 413.014 330.877 413.011 330.891 413.009C331.106 412.973 331.359 412.932 331.675 412.888C331.963 412.848 332.227 412.977 332.265 413.175C332.302 413.373 332.099 413.568 331.811 413.612C331.513 413.657 331.277 413.698 331.061 413.736C331.047 413.738 331.034 413.741 331.02 413.743C330.795 413.783 330.582 413.82 330.352 413.849C330.276 413.859 330.196 413.868 330.122 413.875C329.989 413.894 329.837 413.92 329.656 413.953C329.62 413.96 329.582 413.966 329.544 413.973C329.297 414.018 329.01 414.071 328.686 414.119C327.928 414.231 326.968 414.323 325.703 414.256C325.371 414.239 325.049 414.223 324.735 414.206C323.287 414.13 321.999 414.053 320.615 413.787C320.425 413.75 320.243 413.706 320.048 413.66C319.47 413.521 318.781 413.354 317.445 413.232C315.655 413.068 312.735 412.995 307.576 413.218C306.698 413.256 305.751 413.233 304.742 413.206C304.357 413.196 303.962 413.186 303.559 413.178C302.085 413.147 300.447 413.149 298.572 413.329C296.287 413.549 294.77 413.827 293.509 414.058C293.466 414.066 293.422 414.074 293.379 414.083C293.324 414.093 293.271 414.102 293.217 414.112C292.572 414.229 291.806 414.312 290.995 414.348C289.469 414.415 287.781 414.309 286.425 413.957C285.121 413.619 284.039 413.437 282.662 413.221C281.985 413.115 281.261 413.118 280.15 413.119C279.838 413.119 279.494 413.118 279.114 413.116C277.406 413.104 275.021 413.033 271.379 412.665C270.43 412.57 269.575 412.523 268.777 412.479C268.529 412.465 268.285 412.451 268.047 412.437C267.054 412.377 266.13 412.298 265.269 412.093C264.562 411.924 262.995 411.629 261.254 411.447C259.5 411.263 257.638 411.199 256.306 411.429C256.168 411.453 256.028 411.477 255.889 411.5C254.687 411.704 253.462 411.907 252.475 412.267C248.999 414.084 243.33 413.614 238.5 413.249C237.174 413.146 235.912 413.039 234.775 412.968C234.706 412.964 234.637 412.96 234.567 412.955C228.478 412.577 224.051 412.413 222.542 412.357C222.472 412.355 222.408 412.352 222.351 412.35C222.299 412.348 222.253 412.347 222.212 412.345C221.597 412.322 221.053 412.323 220.483 412.323C220.452 412.323 220.421 412.323 220.39 412.323C219.788 412.324 219.156 412.322 218.409 412.288C215.632 412.164 213.367 412.1 211.408 412.05C211.046 412.041 210.693 412.032 210.349 412.023C210.348 412.023 210.347 412.023 210.346 412.023C208.837 411.987 207.499 411.955 206.229 411.908C203.912 411.823 202.348 411.806 201.131 411.804C200.749 411.803 200.397 411.804 200.065 411.804C199.348 411.806 198.721 411.809 198.074 411.797C196.858 411.775 195.739 411.781 194.637 411.789C194.539 411.79 194.44 411.79 194.342 411.791C193.147 411.799 191.964 411.808 190.713 411.785C190.423 411.779 190.182 411.658 190.177 411.513C190.172 411.369 190.403 411.256 190.694 411.261C191.909 411.281 193.063 411.27 194.258 411.258C194.356 411.257 194.455 411.256 194.555 411.255C195.654 411.244 196.794 411.235 198.032 411.253C198.655 411.262 199.248 411.258 199.951 411.254C200.287 411.251 200.649 411.249 201.051 411.248C202.286 411.246 203.872 411.256 206.21 411.331C207.465 411.372 208.787 411.397 210.295 411.426C210.641 411.433 210.997 411.44 211.364 411.447C213.328 411.487 215.604 411.54 218.396 411.65C219.102 411.677 219.701 411.676 220.301 411.673C220.334 411.673 220.368 411.673 220.402 411.672C220.966 411.669 221.541 411.665 222.19 411.686C222.277 411.689 222.388 411.693 222.521 411.697C224.032 411.745 228.476 411.884 234.589 412.235C234.608 412.236 234.627 412.237 234.645 412.239C236.153 412.325 237.419 412.396 238.504 412.445C240.365 412.529 241.693 412.556 242.792 412.473C244.166 412.371 245.193 412.366 246.035 412.376C246.196 412.377 246.348 412.379 246.493 412.381C247.119 412.391 247.614 412.399 248.109 412.361C249.605 412.247 250.679 412.012 251.98 411.533C253.082 411.127 254.431 410.897 255.613 410.692C255.615 410.691 255.617 410.691 255.619 410.691C255.759 410.666 255.897 410.642 256.032 410.618ZM335.846 412.167C336.137 412.156 336.369 412.3 336.365 412.489C336.361 412.677 336.123 412.843 335.832 412.858C335.14 412.893 334.448 412.927 333.756 412.958C333.466 412.972 333.234 412.821 333.238 412.622C333.242 412.422 333.48 412.253 333.771 412.243C334.463 412.219 335.154 412.194 335.846 412.167ZM254.842 406.505C255.125 406.458 255.407 406.6 255.47 406.823C255.533 407.046 255.354 407.264 255.071 407.31C254.921 407.334 254.674 407.378 254.343 407.437C252.022 407.863 245.515 408.941 238.52 409.196C238.321 409.204 238.12 409.211 237.92 409.218C237.312 409.237 236.767 409.257 236.248 409.276C234.028 409.357 232.243 409.837 227.998 409.736C213.269 409.368 198.551 408.628 183.839 408.662C180.722 408.666 177.605 408.698 174.488 408.767C169.34 408.881 164.208 408.895 159.056 408.888C154.762 408.884 146.893 408.605 145.041 408.574C144.75 408.569 144.518 408.433 144.522 408.27C144.526 408.107 144.764 407.98 145.054 407.985C146.893 408.024 154.736 408.328 159.014 408.341C164.156 408.361 169.277 408.355 174.416 408.246C177.556 408.179 180.698 408.129 183.842 408.093C198.56 407.933 213.302 408.042 228.029 408.213C232.234 408.258 233.943 408.635 236.155 408.548C236.676 408.527 237.223 408.505 237.837 408.482C238.067 408.474 238.296 408.465 238.524 408.455C245.385 408.169 251.746 407.081 254.084 406.642C254.426 406.579 254.683 406.532 254.842 406.505ZM268.345 406.804C271.587 406.727 276.195 406.839 280.222 406.957C282.186 407.013 284.011 407.069 285.473 407.096C287.738 407.137 289.162 407.373 290.575 407.608C290.59 407.611 290.605 407.613 290.62 407.615C290.756 407.638 290.892 407.661 291.029 407.683C292.312 407.893 293.667 408.087 295.745 408.13C298.064 408.177 301.274 408.039 304.511 407.907C304.514 407.907 304.516 407.908 304.519 407.908C307.739 407.773 311.008 407.194 313.368 407.262C321.591 407.498 326.659 408.135 329.221 408.549C333.702 409.248 338.793 408.543 343.371 409.249C343.876 409.397 343.021 409.863 342.09 409.755C342.056 409.751 342.023 409.748 341.989 409.745C341.669 409.717 341.389 409.694 340.994 409.678C340.422 409.669 339.996 409.675 339.608 409.681C338.588 409.701 331.511 409.697 329.009 409.298C326.577 408.909 321.611 409.34 313.334 409.238C311.018 409.209 307.82 408.703 304.583 408.843C304.574 408.843 304.565 408.844 304.556 408.844C301.342 408.986 298.101 409.133 295.743 409.087C293.675 409.047 292.289 408.859 291.024 408.654C290.831 408.623 290.642 408.591 290.452 408.56C290.439 408.558 290.425 408.555 290.411 408.553C289.011 408.32 287.652 408.094 285.471 408.051C283.977 408.021 282.13 407.962 280.154 407.899C276.145 407.77 271.601 407.638 268.387 407.698C268.097 407.703 267.852 407.507 267.84 407.261C267.829 407.015 268.055 406.811 268.345 406.804ZM268.44 401.228C275.995 400.144 283.579 399.96 291.064 400.693C292.612 400.842 294.155 401.026 295.692 401.24C298.036 401.309 301.307 401.45 304.574 401.626C304.611 401.628 304.647 401.631 304.684 401.633C307.915 401.806 311.132 402.011 313.442 402.154C321.663 402.667 326.75 403.211 329.311 403.791C331.7 404.336 332.363 404.374 333.347 404.446C333.373 404.448 333.4 404.45 333.427 404.453C333.429 404.452 333.431 404.452 333.432 404.451C333.466 404.444 333.494 404.441 333.509 404.44C333.539 404.437 333.563 404.437 333.572 404.437C333.593 404.437 333.611 404.438 333.617 404.438C333.642 404.44 333.672 404.442 333.69 404.443C333.865 404.459 334.414 404.52 334.848 404.579C335.294 404.641 335.611 404.701 335.945 404.766C335.979 404.773 336.013 404.779 336.047 404.786C336.349 404.845 336.677 404.908 337.149 404.985C337.437 405.032 337.641 405.215 337.605 405.396C337.568 405.576 337.306 405.688 337.018 405.646C336.52 405.571 336.171 405.508 335.868 405.452C335.835 405.446 335.801 405.44 335.768 405.434C335.447 405.375 335.167 405.326 334.772 405.276C334.2 405.22 333.775 405.194 333.387 405.17C332.369 405.107 331.602 405.071 329.101 404.525C326.67 403.998 321.715 403.513 313.44 403.046C311.126 402.917 307.906 402.729 304.677 402.568C304.639 402.566 304.601 402.564 304.564 402.562C301.295 402.398 298.029 402.262 295.69 402.197C294.141 402.153 292.598 402.133 291.057 402.129C283.532 402.112 276.086 402.455 268.482 402.121C266.796 402.204 265.255 402.264 263.827 402.321C259.624 402.486 256.399 402.63 253.323 403.213C252.648 403.34 250.881 403.482 248.327 403.656C247.579 403.707 246.758 403.761 245.871 403.818C243.779 403.952 241.314 404.104 238.545 404.27C238.436 404.277 238.327 404.283 238.217 404.29C237.608 404.327 237.064 404.362 236.544 404.396C234.324 404.542 232.571 404.654 228.325 404.715C223.1 404.788 214.347 404.821 209.666 404.806C207.321 404.797 205.998 404.772 205.062 404.748C204.801 404.741 204.572 404.734 204.361 404.728C203.812 404.713 203.385 404.701 202.826 404.698C198.797 404.674 195.977 404.786 191.356 404.943C191.066 404.952 190.814 404.843 190.793 404.698C190.772 404.554 190.99 404.429 191.279 404.419C195.907 404.253 198.771 404.13 202.854 404.137C203.438 404.138 203.895 404.149 204.454 404.162C204.662 404.167 204.883 404.173 205.13 404.178C206.051 404.197 207.361 404.217 209.693 404.214C214.366 404.207 223.107 404.125 228.315 404.025C232.52 403.942 234.239 403.826 236.452 403.67C236.972 403.634 237.519 403.595 238.133 403.556C238.273 403.547 238.411 403.538 238.549 403.529C241.287 403.353 243.728 403.191 245.8 403.048C246.686 402.986 247.505 402.928 248.25 402.874C250.855 402.682 252.516 402.537 253.094 402.425C256.278 401.805 259.644 401.635 263.885 401.446C265.298 401.382 266.808 401.316 268.44 401.228ZM174.705 404.762C174.995 404.757 175.245 404.871 175.265 405.014C175.285 405.158 175.066 405.278 174.777 405.283C173.246 405.308 172.146 405.329 171.287 405.346C169.695 405.376 168.926 405.39 167.774 405.373C164.8 405.327 161.929 405.282 159.346 405.238C155.053 405.165 151.554 405.092 149.702 405.026C149.412 405.016 149.179 404.878 149.183 404.72C149.187 404.561 149.425 404.442 149.716 404.454C151.554 404.526 155.027 404.609 159.304 404.692C161.89 404.742 164.771 404.793 167.763 404.843C168.88 404.862 169.606 404.85 171.162 404.822C172.022 404.806 173.134 404.786 174.705 404.762Z" fill="url(#paint7_linear_152_1711)"/>
<defs>
<filter id="filter0_i_152_1711" x="0" y="0" width="391.008" height="455.498" filterUnits="userSpaceOnUse" color-interpolation-filters="sRGB">
<feFlood flood-opacity="0" result="BackgroundImageFix"/>
<feBlend mode="normal" in="SourceGraphic" in2="BackgroundImageFix" result="shape"/>
<feColorMatrix in="SourceAlpha" type="matrix" values="0 0 0 0 0 0 0 0 0 0 0 0 0 0 0 0 0 0 127 0" result="hardAlpha"/>
<feOffset dx="4" dy="4"/>
<feGaussianBlur stdDeviation="5"/>
<feComposite in2="hardAlpha" operator="arithmetic" k2="-1" k3="1"/>
<feColorMatrix type="matrix" values="0 0 0 0 0.477201 0 0 0 0 0.331535 0 0 0 0 0.331535 0 0 0 1 0"/>
<feBlend mode="normal" in2="shape" result="effect1_innerShadow_152_1711"/>
</filter>
<linearGradient id="paint0_linear_152_1711" x1="52.5" y1="-3.5" x2="233" y2="449.5" gradientUnits="userSpaceOnUse">
<stop stop-color="#E7D2CC"/>
<stop offset="1" stop-color="#5C1919"/>
</linearGradient>
<linearGradient id="paint1_linear_152_1711" x1="244" y1="213.015" x2="243.995" y2="214.015" gradientUnits="userSpaceOnUse">
<stop stop-color="#5C1919"/>
<stop offset="1" stop-color="#1E1E1E"/>
</linearGradient>
<linearGradient id="paint2_linear_152_1711" x1="244" y1="173.005" x2="243.995" y2="174.005" gradientUnits="userSpaceOnUse">
<stop stop-color="#5C1919"/>
<stop offset="1" stop-color="#1E1E1E"/>
</linearGradient>
<linearGradient id="paint3_linear_152_1711" x1="244" y1="253.025" x2="243.995" y2="254.025" gradientUnits="userSpaceOnUse">
<stop stop-color="#5C1919"/>
<stop offset="1" stop-color="#1E1E1E"/>
</linearGradient>
<linearGradient id="paint4_linear_152_1711" x1="244" y1="293.034" x2="243.995" y2="294.034" gradientUnits="userSpaceOnUse">
<stop stop-color="#5C1919"/>
<stop offset="1" stop-color="#1E1E1E"/>
</linearGradient>
<linearGradient id="paint5_linear_152_1711" x1="244" y1="333.044" x2="243.995" y2="334.044" gradientUnits="userSpaceOnUse">
<stop stop-color="#5C1919"/>
<stop offset="1" stop-color="#1E1E1E"/>
</linearGradient>
<linearGradient id="paint6_linear_152_1711" x1="244" y1="373.054" x2="243.995" y2="374.054" gradientUnits="userSpaceOnUse">
<stop stop-color="#5C1919"/>
<stop offset="1" stop-color="#1E1E1E"/>
</linearGradient>
<linearGradient id="paint7_linear_152_1711" x1="244" y1="413.064" x2="243.995" y2="414.064" gradientUnits="userSpaceOnUse">
<stop stop-color="#5C1919"/>
<stop offset="1" stop-color="#1E1E1E"/>
</linearGradient>
</defs>
</svg>
